<?xml version="1.0" encoding="UTF-8" standalone="no"?>
<svg
   xmlns:dc="http://purl.org/dc/elements/1.1/"
   xmlns:cc="http://creativecommons.org/ns#"
   xmlns:rdf="http://www.w3.org/1999/02/22-rdf-syntax-ns#"
   xmlns:svg="http://www.w3.org/2000/svg"
   xmlns="http://www.w3.org/2000/svg"
   xmlns:xlink="http://www.w3.org/1999/xlink"
   width="675.80231"
   height="675.80231"
   viewBox="0 0 178.80605 178.80601"
   version="1.1"
   id="svg8">
  <defs
     id="defs2">
    <linearGradient
       id="linearGradient5073">
      <stop
         id="stop5071"
         offset="0"
         style="stop-color:#000000;stop-opacity:0;" />
      <stop
         id="stop5069"
         offset="1"
         style="stop-color:#000000;stop-opacity:1;" />
    </linearGradient>
    <radialGradient
       xlink:href="#linearGradient5073"
       id="radialGradient5075"
       cx="9.9185057"
       cy="260.21078"
       fx="9.9185057"
       fy="260.21078"
       r="74.46479"
       gradientUnits="userSpaceOnUse"
       gradientTransform="translate(4.9794086,6.7901027)" />
  </defs>
  <metadata
     id="metadata5">
    <rdf:RDF>
      <cc:Work
         rdf:about="">
        <dc:format>image/svg+xml</dc:format>
        <dc:type
           rdf:resource="http://purl.org/dc/dcmitype/StillImage" />
        <dc:title></dc:title>
      </cc:Work>
    </rdf:RDF>
  </metadata>
  <g
     id="layer1"
     transform="translate(47.170513,-210.72525)">
    <circle
       style="fill:url(#radialGradient5075);fill-opacity:1;stroke:none;stroke-width:0.26458332;stroke-opacity:1"
       id="path5067"
       cx="42.232502"
       cy="300.12827"
       r="89.403015" />
    <g
       transform="translate(-90.037144,37.650995)"
       id="g5136"
       style="font-style:italic;font-variant:normal;font-weight:500;font-stretch:normal;font-size:48.63042068px;line-height:1.25;font-family:'URW Chancery L';-inkscape-font-specification:'URW Chancery L, Medium Italic';font-variant-ligatures:normal;font-variant-caps:normal;font-variant-numeric:normal;font-feature-settings:normal;text-align:center;letter-spacing:0px;word-spacing:0px;writing-mode:lr-tb;text-anchor:middle;fill:#000000;fill-opacity:1;stroke:#000000;stroke-width:0.35277778;stroke-miterlimit:4;stroke-dasharray:none;stroke-opacity:1"
       aria-label="of">
      <path
         id="path5132"
         style="font-style:italic;font-variant:normal;font-weight:500;font-stretch:normal;font-size:48.63042068px;font-family:'URW Chancery L';-inkscape-font-specification:'URW Chancery L, Medium Italic';font-variant-ligatures:normal;font-variant-caps:normal;font-variant-numeric:normal;font-feature-settings:normal;text-align:center;writing-mode:lr-tb;text-anchor:middle;fill:#000000;fill-opacity:1;stroke:#000000;stroke-width:0.35277778;stroke-miterlimit:4;stroke-dasharray:none;stroke-opacity:1"
         d="m 125.7096,246.2838 c -1.94521,0 -5.05756,1.41028 -7.92676,3.55002 -3.11234,2.33426 -5.30071,7.39183 -5.30071,12.20624 0,2.96645 1.65343,4.86304 4.23084,4.86304 1.36166,0 2.72331,-0.4863 4.96031,-1.65343 2.43152,-1.36166 4.03632,-2.57742 4.91167,-3.74455 1.94522,-2.62604 3.50139,-7.39182 3.50139,-10.74732 0,-2.62604 -1.79933,-4.474 -4.37674,-4.474 z m -2.52878,2.28563 c 1.94522,0 3.16098,1.89659 3.16098,4.81441 0,2.04248 -0.68083,4.57126 -1.89659,6.95415 -1.36165,2.77194 -3.11235,4.27948 -4.9603,4.27948 -1.99385,0 -3.25824,-1.79933 -3.25824,-4.57126 0,-5.64113 3.55002,-11.47678 6.95415,-11.47678 z" />
      <path
         id="path5134"
         style="font-style:italic;font-variant:normal;font-weight:500;font-stretch:normal;font-size:48.63042068px;font-family:'URW Chancery L';-inkscape-font-specification:'URW Chancery L, Medium Italic';font-variant-ligatures:normal;font-variant-caps:normal;font-variant-numeric:normal;font-feature-settings:normal;text-align:center;writing-mode:lr-tb;text-anchor:middle;fill:#000000;fill-opacity:1;stroke:#000000;stroke-width:0.35277778;stroke-miterlimit:4;stroke-dasharray:none;stroke-opacity:1"
         d="m 144.74309,251.09821 c 0.14589,0 0.43768,0 0.97261,0.0486 l 1.99385,-1.55617 c -2.52878,-0.0486 -2.52878,-0.0486 -3.06372,-0.0486 -0.58356,0 -0.58356,0 -2.86919,0.0486 3.16098,-12.35213 3.89043,-13.85967 6.75963,-13.85967 0.82671,0 1.45891,0.0973 3.25823,0.38904 l 2.237,-2.62604 c -0.9726,-0.24315 -1.36165,-0.29178 -2.33426,-0.29178 -2.91782,0 -4.9603,1.06987 -8.21854,4.23085 -2.7233,2.62604 -3.3555,4.08495 -5.25208,12.1576 -0.48631,-0.0486 -0.72946,-0.0486 -0.97261,-0.0486 l -2.38289,0.0973 c -0.0973,0 -0.34041,0 -0.72946,-0.0486 -0.29178,0.19452 -0.58356,0.38904 -0.68082,0.43767 l -1.06987,0.58357 c -0.19453,0.0973 -0.58357,0.29178 -0.97261,0.53493 h 1.21576 c 0,0 3.40413,0.0486 3.40413,0.0486 0.29178,0 0.82672,0 1.79932,-0.0486 -0.77808,2.96646 -1.06987,4.27948 -1.99384,8.51033 -2.91783,13.37336 -4.03633,15.56173 -8.16991,15.56173 -0.68083,0 -1.2644,-0.0486 -2.57742,-0.24315 -0.4863,0.72946 -0.63219,0.97261 -0.9726,1.41028 -0.38905,0.53494 -0.82672,1.06987 -1.21577,1.65344 1.06987,0.14589 1.60481,0.19452 2.3829,0.19452 1.6048,0 2.86919,-0.24315 3.64728,-0.68083 1.41028,-0.77808 3.89043,-3.16098 5.20345,-4.86304 1.50754,-2.04248 3.25824,-6.22469 4.37674,-10.65006 2.09111,-7.92676 2.62604,-9.92061 2.86919,-10.89322 0.43768,0.0486 0.6322,0.0486 0.82672,0.0486 z" />
    </g>
    <g
       id="g5184">
      <path
         d="m 34.614122,282.87646 c -1.94521,0 -5.05756,1.41028 -7.92676,3.55002 -3.11234,2.33426 -5.30071,7.39183 -5.30071,12.20624 0,2.96645 1.65343,4.86304 4.23084,4.86304 1.36166,0 2.72331,-0.4863 4.96031,-1.65343 2.43152,-1.36166 4.03632,-2.57742 4.91167,-3.74455 1.94522,-2.62604 3.50139,-7.39182 3.50139,-10.74732 0,-2.62604 -1.79933,-4.474 -4.37674,-4.474 z m -2.52878,2.28563 c 1.94522,0 3.16098,1.89659 3.16098,4.81441 0,2.04248 -0.68083,4.57126 -1.89659,6.95415 -1.36165,2.77194 -3.11235,4.27948 -4.9603,4.27948 -1.99385,0 -3.25824,-1.79933 -3.25824,-4.57126 0,-5.64113 3.55002,-11.47678 6.95415,-11.47678 z"
         style="font-style:italic;font-variant:normal;font-weight:500;font-stretch:normal;font-size:48.63042068px;line-height:1.25;font-family:'URW Chancery L';-inkscape-font-specification:'URW Chancery L, Medium Italic';font-variant-ligatures:normal;font-variant-caps:normal;font-variant-numeric:normal;font-feature-settings:normal;text-align:center;letter-spacing:0px;word-spacing:0px;writing-mode:lr-tb;text-anchor:middle;fill:#ffffff;fill-opacity:1;stroke:#000000;stroke-width:0.35277778;stroke-miterlimit:4;stroke-dasharray:none;stroke-opacity:1"
         id="path4946" />
      <path
         d="m 53.647612,287.69087 c 0.14589,0 0.43768,0 0.97261,0.0486 l 1.99385,-1.55617 c -2.52878,-0.0486 -2.52878,-0.0486 -3.06372,-0.0486 -0.58356,0 -0.58356,0 -2.86919,0.0486 3.16098,-12.35213 3.89043,-13.85967 6.75963,-13.85967 0.82671,0 1.45891,0.0973 3.25823,0.38904 l 2.237,-2.62604 c -0.9726,-0.24315 -1.36165,-0.29178 -2.33426,-0.29178 -2.91782,0 -4.9603,1.06987 -8.21854,4.23085 -2.7233,2.62604 -3.3555,4.08495 -5.25208,12.1576 -0.48631,-0.0486 -0.72946,-0.0486 -0.97261,-0.0486 l -2.38289,0.0973 c -0.0973,0 -0.34041,0 -0.72946,-0.0486 -0.29178,0.19452 -0.58356,0.38904 -0.68082,0.43767 l -1.06987,0.58357 c -0.19453,0.0973 -0.58357,0.29178 -0.97261,0.53493 h 1.21576 c 0,0 3.40413,0.0486 3.40413,0.0486 0.29178,0 0.82672,0 1.79932,-0.0486 -0.77808,2.96646 -1.06987,4.27948 -1.99384,8.51033 -2.91783,13.37336 -4.03633,15.56173 -8.16991,15.56173 -0.68083,0 -1.2644,-0.0486 -2.57742,-0.24315 -0.4863,0.72946 -0.63219,0.97261 -0.9726,1.41028 -0.38905,0.53494 -0.82672,1.06987 -1.21577,1.65344 1.06987,0.14589 1.60481,0.19452 2.3829,0.19452 1.6048,0 2.86919,-0.24315 3.64728,-0.68083 1.41028,-0.77808 3.89043,-3.16098 5.20345,-4.86304 1.50754,-2.04248 3.25824,-6.22469 4.37674,-10.65006 2.09111,-7.92676 2.62604,-9.92061 2.86919,-10.89322 0.43768,0.0486 0.6322,0.0486 0.82672,0.0486 z"
         style="font-style:italic;font-variant:normal;font-weight:500;font-stretch:normal;font-size:48.63042068px;line-height:1.25;font-family:'URW Chancery L';-inkscape-font-specification:'URW Chancery L, Medium Italic';font-variant-ligatures:normal;font-variant-caps:normal;font-variant-numeric:normal;font-feature-settings:normal;text-align:center;letter-spacing:0px;word-spacing:0px;writing-mode:lr-tb;text-anchor:middle;fill:#ffffff;fill-opacity:1;stroke:#000000;stroke-width:0.35277778;stroke-miterlimit:4;stroke-dasharray:none;stroke-opacity:1"
         id="path4948" />
    </g>
    <g
       transform="translate(-2.5724917,-1.5875)"
       id="g5104"
       style="fill:#000000;stroke:none">
      <g
         id="g5098"
         style="font-style:italic;font-variant:normal;font-weight:500;font-stretch:normal;font-size:48.63042068px;line-height:1.25;font-family:'URW Chancery L';-inkscape-font-specification:'URW Chancery L, Medium Italic';font-variant-ligatures:normal;font-variant-caps:normal;font-variant-numeric:normal;font-feature-settings:normal;text-align:center;letter-spacing:0px;word-spacing:0px;writing-mode:lr-tb;text-anchor:middle;fill:#000000;fill-opacity:1;stroke:none;stroke-width:0.35277778;stroke-miterlimit:4;stroke-dasharray:none;stroke-opacity:1"
         aria-label="od">
        <path
           id="path5094"
           style="font-style:italic;font-variant:normal;font-weight:500;font-stretch:normal;font-size:48.63042068px;font-family:'URW Chancery L';-inkscape-font-specification:'URW Chancery L, Medium Italic';font-variant-ligatures:normal;font-variant-caps:normal;font-variant-numeric:normal;font-feature-settings:normal;text-align:center;writing-mode:lr-tb;text-anchor:middle;fill:#000000;fill-opacity:1;stroke:none;stroke-width:0.35277778;stroke-miterlimit:4;stroke-dasharray:none;stroke-opacity:1"
           d="m 54.687498,245.73561 c -1.945217,0 -5.057564,1.41029 -7.926759,3.55003 -3.112347,2.33426 -5.300716,7.39182 -5.300716,12.20623 0,2.96646 1.653435,4.86304 4.230847,4.86304 1.361652,0 2.723303,-0.4863 4.960303,-1.65343 2.431521,-1.36165 4.036325,-2.57741 4.911672,-3.74454 1.945217,-2.62605 3.501391,-7.39183 3.501391,-10.74733 0,-2.62604 -1.799326,-4.474 -4.376738,-4.474 z m -2.528782,2.28563 c 1.945217,0 3.160977,1.89659 3.160977,4.81442 0,2.04247 -0.680826,4.57126 -1.896586,6.95415 -1.361652,2.77193 -3.112347,4.27947 -4.960303,4.27947 -1.993847,0 -3.258238,-1.79932 -3.258238,-4.57126 0,-5.64113 3.55002,-11.47678 6.95415,-11.47678 z" />
        <path
           id="path5096"
           style="font-style:italic;font-variant:normal;font-weight:500;font-stretch:normal;font-size:48.63042068px;font-family:'URW Chancery L';-inkscape-font-specification:'URW Chancery L, Medium Italic';font-variant-ligatures:normal;font-variant-caps:normal;font-variant-numeric:normal;font-feature-settings:normal;text-align:center;writing-mode:lr-tb;text-anchor:middle;fill:#000000;fill-opacity:1;stroke:none;stroke-width:0.35277778;stroke-miterlimit:4;stroke-dasharray:none;stroke-opacity:1"
           d="m 80.86966,259.35213 c -0.632195,0.38905 -1.118499,0.72946 -1.361651,0.87535 -2.674673,1.84796 -4.036325,2.62604 -4.473999,2.62604 -0.389043,0 -0.680826,-0.53493 -0.680826,-1.26439 0,-1.6048 4.084955,-19.20901 5.106194,-22.2241 1.06987,-2.91783 2.139739,-4.03633 3.890434,-4.03633 0.632195,0 1.1185,0.0973 2.236999,0.38905 l 1.702065,-2.72331 c -0.729456,-0.14589 -1.1185,-0.19452 -1.556173,-0.19452 -1.167131,0 -1.799326,0.19452 -2.917826,0.82672 -1.21576,0.68083 -2.869195,1.94522 -4.230846,3.20961 -2.382891,2.28563 -2.528782,2.62604 -3.793173,7.63497 -0.04863,0.19453 -0.194522,0.82672 -0.389043,1.55618 -0.875348,-0.19452 -1.604804,-0.29179 -1.993848,-0.29179 -1.507543,0 -5.689759,2.62605 -7.634976,4.76579 -1.653434,1.89658 -3.841803,8.75347 -3.841803,12.10897 0,1.84796 0.972608,3.74454 1.847956,3.74454 0.923978,0 3.063716,-1.31302 8.169911,-5.00893 -0.243152,1.21576 -0.389044,2.62604 -0.389044,3.50139 0,0.97261 0.389044,1.50754 1.06987,1.50754 0.778086,0 5.008933,-2.57741 9.045258,-5.49523 z m -9.531562,0.19452 c -4.133586,2.91783 -5.203455,3.55002 -5.884281,3.55002 -0.680826,0 -1.021239,-0.72945 -1.021239,-2.13973 0,-1.60481 0.291783,-3.45276 0.875348,-5.5925 1.410282,-4.91167 3.306868,-7.3432 5.78702,-7.3432 0.875347,0 1.507543,0.34042 2.528782,1.31303 z" />
      </g>
      <g
         id="g5102"
         style="font-style:italic;font-variant:normal;font-weight:500;font-stretch:normal;font-size:64.72708893px;line-height:1.25;font-family:'URW Chancery L';-inkscape-font-specification:'URW Chancery L, Medium Italic';font-variant-ligatures:normal;font-variant-caps:normal;font-variant-numeric:normal;font-feature-settings:normal;text-align:center;letter-spacing:0px;word-spacing:0px;writing-mode:lr-tb;text-anchor:middle;fill:#000000;fill-opacity:1;stroke:none;stroke-width:0.35277778;stroke-miterlimit:4;stroke-dasharray:none;stroke-opacity:1"
         aria-label="G"
         transform="translate(1.0583333)">
        <path
           id="path5100"
           style="font-style:italic;font-variant:normal;font-weight:500;font-stretch:normal;font-size:64.72708893px;font-family:'URW Chancery L';-inkscape-font-specification:'URW Chancery L, Medium Italic';font-variant-ligatures:normal;font-variant-caps:normal;font-variant-numeric:normal;font-feature-settings:normal;text-align:center;writing-mode:lr-tb;text-anchor:middle;fill:#000000;fill-opacity:1;stroke:none;stroke-width:0.35277778;stroke-miterlimit:4;stroke-dasharray:none;stroke-opacity:1"
           d="m 33.304374,254.07918 h 1.359269 l 2.977446,-1.81236 c -2.589083,-0.19418 -8.543976,-0.32364 -14.563595,-0.32364 l -3.948352,2.00654 v 0.51782 c 3.236354,-0.19418 6.407981,-0.32364 9.450155,-0.38836 l -2.330176,9.3207 c -2.718537,2.58908 -6.602163,4.33671 -9.579609,4.33671 -4.789804,0 -7.7672504,-3.75417 -7.7672504,-9.64433 0,-12.62179 8.5439754,-24.40212 17.6057684,-24.40212 2.65381,0 4.919259,1.10036 6.149073,3.04218 0.841452,1.29454 1.165088,2.3949 1.55345,5.11344 l 4.789805,-5.37235 c -1.229815,-3.68945 -3.624717,-5.11344 -8.543976,-5.11344 -7.055252,0 -13.463234,2.91272 -18.641401,8.47925 -5.2428946,5.63125 -8.5439761,13.59269 -8.5439761,20.38903 0,6.27853 3.4305357,10.16215 8.9970651,10.16215 4.01308,0 7.443615,-1.03563 13.204326,-3.94835 -0.970906,3.88363 -2.135994,8.09089 -2.718537,9.51488 -1.294542,3.49527 -3.171628,4.91926 -6.602163,4.91926 -1.877086,0 -5.048713,-0.25891 -6.990526,-0.58254 l -2.7185378,4.27199 c 2.3301752,0.2589 3.3658087,0.32363 4.6603508,0.32363 5.178167,0 9.579609,-2.33017 13.851597,-7.31416 2.783264,-3.17163 3.948352,-5.89017 5.825438,-13.39851 z" />
      </g>
    </g>
    <g
       id="g5092"
       transform="translate(-3.6308251,-2.6458334)"
       style="fill:#ffffff;fill-opacity:1">
      <g
         aria-label="od"
         style="font-style:italic;font-variant:normal;font-weight:500;font-stretch:normal;font-size:48.63042068px;line-height:1.25;font-family:'URW Chancery L';-inkscape-font-specification:'URW Chancery L, Medium Italic';font-variant-ligatures:normal;font-variant-caps:normal;font-variant-numeric:normal;font-feature-settings:normal;text-align:center;letter-spacing:0px;word-spacing:0px;writing-mode:lr-tb;text-anchor:middle;fill:#ffffff;fill-opacity:1;stroke:#000000;stroke-width:0.35277778;stroke-miterlimit:4;stroke-dasharray:none;stroke-opacity:1"
         id="text12943">
        <path
           d="m 54.687498,245.73561 c -1.945217,0 -5.057564,1.41029 -7.926759,3.55003 -3.112347,2.33426 -5.300716,7.39182 -5.300716,12.20623 0,2.96646 1.653435,4.86304 4.230847,4.86304 1.361652,0 2.723303,-0.4863 4.960303,-1.65343 2.431521,-1.36165 4.036325,-2.57741 4.911672,-3.74454 1.945217,-2.62605 3.501391,-7.39183 3.501391,-10.74733 0,-2.62604 -1.799326,-4.474 -4.376738,-4.474 z m -2.528782,2.28563 c 1.945217,0 3.160977,1.89659 3.160977,4.81442 0,2.04247 -0.680826,4.57126 -1.896586,6.95415 -1.361652,2.77193 -3.112347,4.27947 -4.960303,4.27947 -1.993847,0 -3.258238,-1.79932 -3.258238,-4.57126 0,-5.64113 3.55002,-11.47678 6.95415,-11.47678 z"
           style="font-style:italic;font-variant:normal;font-weight:500;font-stretch:normal;font-size:48.63042068px;font-family:'URW Chancery L';-inkscape-font-specification:'URW Chancery L, Medium Italic';font-variant-ligatures:normal;font-variant-caps:normal;font-variant-numeric:normal;font-feature-settings:normal;text-align:center;writing-mode:lr-tb;text-anchor:middle;fill:#ffffff;fill-opacity:1;stroke:#000000;stroke-width:0.35277778;stroke-miterlimit:4;stroke-dasharray:none;stroke-opacity:1"
           id="path4951" />
        <path
           d="m 80.86966,259.35213 c -0.632195,0.38905 -1.118499,0.72946 -1.361651,0.87535 -2.674673,1.84796 -4.036325,2.62604 -4.473999,2.62604 -0.389043,0 -0.680826,-0.53493 -0.680826,-1.26439 0,-1.6048 4.084955,-19.20901 5.106194,-22.2241 1.06987,-2.91783 2.139739,-4.03633 3.890434,-4.03633 0.632195,0 1.1185,0.0973 2.236999,0.38905 l 1.702065,-2.72331 c -0.729456,-0.14589 -1.1185,-0.19452 -1.556173,-0.19452 -1.167131,0 -1.799326,0.19452 -2.917826,0.82672 -1.21576,0.68083 -2.869195,1.94522 -4.230846,3.20961 -2.382891,2.28563 -2.528782,2.62604 -3.793173,7.63497 -0.04863,0.19453 -0.194522,0.82672 -0.389043,1.55618 -0.875348,-0.19452 -1.604804,-0.29179 -1.993848,-0.29179 -1.507543,0 -5.689759,2.62605 -7.634976,4.76579 -1.653434,1.89658 -3.841803,8.75347 -3.841803,12.10897 0,1.84796 0.972608,3.74454 1.847956,3.74454 0.923978,0 3.063716,-1.31302 8.169911,-5.00893 -0.243152,1.21576 -0.389044,2.62604 -0.389044,3.50139 0,0.97261 0.389044,1.50754 1.06987,1.50754 0.778086,0 5.008933,-2.57741 9.045258,-5.49523 z m -9.531562,0.19452 c -4.133586,2.91783 -5.203455,3.55002 -5.884281,3.55002 -0.680826,0 -1.021239,-0.72945 -1.021239,-2.13973 0,-1.60481 0.291783,-3.45276 0.875348,-5.5925 1.410282,-4.91167 3.306868,-7.3432 5.78702,-7.3432 0.875347,0 1.507543,0.34042 2.528782,1.31303 z"
           style="font-style:italic;font-variant:normal;font-weight:500;font-stretch:normal;font-size:48.63042068px;font-family:'URW Chancery L';-inkscape-font-specification:'URW Chancery L, Medium Italic';font-variant-ligatures:normal;font-variant-caps:normal;font-variant-numeric:normal;font-feature-settings:normal;text-align:center;writing-mode:lr-tb;text-anchor:middle;fill:#ffffff;fill-opacity:1;stroke:#000000;stroke-width:0.35277778;stroke-miterlimit:4;stroke-dasharray:none;stroke-opacity:1"
           id="path4953" />
      </g>
      <g
         transform="translate(1.0583333)"
         aria-label="G"
         style="font-style:italic;font-variant:normal;font-weight:500;font-stretch:normal;font-size:64.72708893px;line-height:1.25;font-family:'URW Chancery L';-inkscape-font-specification:'URW Chancery L, Medium Italic';font-variant-ligatures:normal;font-variant-caps:normal;font-variant-numeric:normal;font-feature-settings:normal;text-align:center;letter-spacing:0px;word-spacing:0px;writing-mode:lr-tb;text-anchor:middle;fill:#ffffff;fill-opacity:1;stroke:#000000;stroke-width:0.35277778;stroke-miterlimit:4;stroke-dasharray:none;stroke-opacity:1"
         id="text12951">
        <path
           d="m 33.304374,254.07918 h 1.359269 l 2.977446,-1.81236 c -2.589083,-0.19418 -8.543976,-0.32364 -14.563595,-0.32364 l -3.948352,2.00654 v 0.51782 c 3.236354,-0.19418 6.407981,-0.32364 9.450155,-0.38836 l -2.330176,9.3207 c -2.718537,2.58908 -6.602163,4.33671 -9.579609,4.33671 -4.789804,0 -7.7672504,-3.75417 -7.7672504,-9.64433 0,-12.62179 8.5439754,-24.40212 17.6057684,-24.40212 2.65381,0 4.919259,1.10036 6.149073,3.04218 0.841452,1.29454 1.165088,2.3949 1.55345,5.11344 l 4.789805,-5.37235 c -1.229815,-3.68945 -3.624717,-5.11344 -8.543976,-5.11344 -7.055252,0 -13.463234,2.91272 -18.641401,8.47925 -5.2428946,5.63125 -8.5439761,13.59269 -8.5439761,20.38903 0,6.27853 3.4305357,10.16215 8.9970651,10.16215 4.01308,0 7.443615,-1.03563 13.204326,-3.94835 -0.970906,3.88363 -2.135994,8.09089 -2.718537,9.51488 -1.294542,3.49527 -3.171628,4.91926 -6.602163,4.91926 -1.877086,0 -5.048713,-0.25891 -6.990526,-0.58254 l -2.7185378,4.27199 c 2.3301752,0.2589 3.3658087,0.32363 4.6603508,0.32363 5.178167,0 9.579609,-2.33017 13.851597,-7.31416 2.783264,-3.17163 3.948352,-5.89017 5.825438,-13.39851 z"
           style="font-style:italic;font-variant:normal;font-weight:500;font-stretch:normal;font-size:64.72708893px;font-family:'URW Chancery L';-inkscape-font-specification:'URW Chancery L, Medium Italic';font-variant-ligatures:normal;font-variant-caps:normal;font-variant-numeric:normal;font-feature-settings:normal;text-align:center;writing-mode:lr-tb;text-anchor:middle;fill:#ffffff;fill-opacity:1;stroke:#000000;stroke-width:0.35277778;stroke-miterlimit:4;stroke-dasharray:none;stroke-opacity:1"
           id="path4956" />
      </g>
    </g>
    <g
       transform="translate(9.2788276,-1.5875)"
       id="g5130"
       style="fill:#000000;stroke:#000000;stroke-opacity:1">
      <g
         id="g5124"
         style="font-style:italic;font-variant:normal;font-weight:500;font-stretch:normal;font-size:48.63042068px;line-height:1.25;font-family:'URW Chancery L';-inkscape-font-specification:'URW Chancery L, Medium Italic';font-variant-ligatures:normal;font-variant-caps:normal;font-variant-numeric:normal;font-feature-settings:normal;text-align:center;letter-spacing:0px;word-spacing:0px;writing-mode:lr-tb;text-anchor:middle;fill:#000000;fill-opacity:1;stroke:#000000;stroke-width:0.35277778;stroke-miterlimit:4;stroke-dasharray:none;stroke-opacity:1"
         aria-label="ate"
         transform="translate(-192.5381,91.440049)">
        <path
           id="path5118"
           style="font-style:italic;font-variant:normal;font-weight:500;font-stretch:normal;font-size:48.63042068px;font-family:'URW Chancery L';-inkscape-font-specification:'URW Chancery L, Medium Italic';font-variant-ligatures:normal;font-variant-caps:normal;font-variant-numeric:normal;font-feature-settings:normal;text-align:center;writing-mode:lr-tb;text-anchor:middle;fill:#000000;fill-opacity:1;stroke:#000000;stroke-width:0.35277778;stroke-miterlimit:4;stroke-dasharray:none;stroke-opacity:1"
           d="m 236.56374,260.25001 c -3.64728,2.43152 -4.37674,2.86919 -4.86304,2.86919 -0.34041,0 -0.58356,-0.38904 -0.58356,-0.97261 0,-1.26439 1.16713,-6.61374 2.91782,-13.08158 0.53494,-0.72946 0.6322,-0.87535 1.41028,-1.7507 -2.33426,-0.53493 -4.03632,-0.72945 -6.12743,-0.72945 -1.99385,0 -2.91783,0.19452 -4.18222,0.97261 -1.75069,1.02123 -3.79317,2.52878 -4.42536,3.2096 -1.79933,2.04248 -3.84181,8.60759 -3.84181,12.54665 0,2.33426 0.77809,3.89044 1.99385,3.89044 1.06987,0 2.67467,-0.97261 8.75348,-5.34935 -0.48631,2.237 -0.72946,3.74454 -0.72946,4.32811 0,0.63219 0.29178,1.02124 0.77809,1.02124 0.58356,0 0.58356,0 4.47399,-2.48016 1.41029,-0.92397 2.52879,-1.70206 4.37674,-3.06371 z m -9.48293,0.29178 c -2.86919,2.09111 -4.32811,2.91782 -5.20345,2.91782 -0.77809,0 -1.2644,-0.87534 -1.2644,-2.43152 0,-2.43152 0.77809,-5.73839 1.99385,-8.51032 1.16713,-2.67467 2.237,-3.69591 3.89044,-3.69591 0.87534,0 2.38289,0.24315 4.13358,0.63219 -0.97261,3.69591 -1.31302,4.81441 -1.36165,5.05757 -0.29178,1.21576 -0.53494,2.43152 -0.82672,3.69591 -0.0486,0.24315 -0.19452,0.82672 -0.43767,1.70206 z" />
        <path
           id="path5120"
           style="font-style:italic;font-variant:normal;font-weight:500;font-stretch:normal;font-size:48.63042068px;font-family:'URW Chancery L';-inkscape-font-specification:'URW Chancery L, Medium Italic';font-variant-ligatures:normal;font-variant-caps:normal;font-variant-numeric:normal;font-feature-settings:normal;text-align:center;writing-mode:lr-tb;text-anchor:middle;fill:#000000;fill-opacity:1;stroke:#000000;stroke-width:0.35277778;stroke-miterlimit:4;stroke-dasharray:none;stroke-opacity:1"
           d="m 250.71139,260.44453 c -3.69591,2.18837 -5.25208,3.01508 -5.93291,3.01508 -0.63219,0 -1.41028,-1.26439 -1.41028,-2.28563 0,-0.68082 0.82672,-4.42536 2.09111,-9.53156 0.68083,-0.0486 1.16713,-0.0486 1.41028,-0.0486 l 1.94522,-0.0486 c 0.19452,0 0.68082,-0.0486 1.45891,-0.14589 l 1.84796,-1.41028 h -6.2247 l 1.94522,-7.87813 c -0.92398,0.4863 -1.31302,0.63219 -2.04248,0.97261 -0.34041,0.19452 -0.72945,0.34041 -1.1185,0.53493 -0.19452,0.0973 -0.43767,0.19452 -0.68082,0.29178 l -1.36165,6.07881 c -0.43768,0.0486 -0.72946,0.0486 -0.87535,0.0486 h -1.16713 c -0.0973,0 -0.34042,0 -0.72946,0.0486 -0.53493,0.34041 -0.58356,0.34041 -1.41028,1.02124 -0.14589,0.0973 -0.38904,0.29178 -0.72946,0.53493 h 1.16713 2.237 1.06987 c -2.57741,10.79595 -2.57741,10.79595 -2.57741,12.3035 0,1.55617 1.02124,3.25824 1.94522,3.25824 1.06987,0 4.37673,-2.04248 9.04525,-5.54387 z" />
        <path
           id="path5122"
           style="font-style:italic;font-variant:normal;font-weight:500;font-stretch:normal;font-size:48.63042068px;font-family:'URW Chancery L';-inkscape-font-specification:'URW Chancery L, Medium Italic';font-variant-ligatures:normal;font-variant-caps:normal;font-variant-numeric:normal;font-feature-settings:normal;text-align:center;writing-mode:lr-tb;text-anchor:middle;fill:#000000;fill-opacity:1;stroke:#000000;stroke-width:0.35277778;stroke-miterlimit:4;stroke-dasharray:none;stroke-opacity:1"
           d="m 267.11504,259.90959 c -3.64728,3.16098 -5.98154,4.52263 -7.82949,4.52263 -1.21576,0 -2.237,-0.82672 -2.57742,-2.09111 -0.19452,-0.77808 -0.24315,-1.31302 -0.24315,-2.7233 2.18837,-1.36165 3.64728,-2.38289 6.51648,-4.52263 2.62604,-1.99385 3.64728,-3.59865 3.64728,-5.78702 0,-1.70206 -1.06987,-2.7233 -2.77193,-2.7233 -1.06987,0 -1.84796,0.24315 -2.96646,0.87535 -1.84795,1.06986 -3.50139,2.38289 -4.52263,3.55002 -1.84795,2.237 -3.50139,7.58634 -3.50139,11.52541 0,2.86919 1.50754,4.66852 3.9877,4.66852 2.86919,0 6.41921,-2.04248 10.26101,-5.88428 z m -10.50417,-2.04247 c 0.82672,-5.20346 3.06372,-9.23978 5.15483,-9.23978 0.82672,0 1.36165,0.82671 1.36165,1.99384 0,2.43152 -1.31302,3.89044 -6.51648,7.24594 z" />
      </g>
      <g
         id="g5128"
         style="font-style:italic;font-variant:normal;font-weight:500;font-stretch:normal;font-size:64.72708893px;line-height:1.25;font-family:'URW Chancery L';-inkscape-font-specification:'URW Chancery L, Medium Italic';font-variant-ligatures:normal;font-variant-caps:normal;font-variant-numeric:normal;font-feature-settings:normal;text-align:center;letter-spacing:0px;word-spacing:0px;writing-mode:lr-tb;text-anchor:middle;fill:#000000;fill-opacity:1;stroke:#000000;stroke-width:0.35277778;stroke-miterlimit:4;stroke-dasharray:none;stroke-opacity:1"
         aria-label="F"
         transform="translate(-190.95059,91.440049)">
        <path
           id="path5126"
           style="font-style:italic;font-variant:normal;font-weight:500;font-stretch:normal;font-size:64.72708893px;font-family:'URW Chancery L';-inkscape-font-specification:'URW Chancery L, Medium Italic';font-variant-ligatures:normal;font-variant-caps:normal;font-variant-numeric:normal;font-feature-settings:normal;text-align:center;writing-mode:lr-tb;text-anchor:middle;fill:#000000;fill-opacity:1;stroke:#000000;stroke-width:0.35277778;stroke-miterlimit:4;stroke-dasharray:none;stroke-opacity:1"
           d="m 203.56214,251.5888 4.14254,-16.63487 10.35633,0.25891 c 0.84145,-0.712 2.71854,-2.13599 4.07781,-2.97744 0.32363,-0.77673 0.38836,-0.90618 0.64727,-1.81236 -2.71854,1.6829 -4.98399,2.26545 -8.6087,2.26545 l -8.67343,-0.0647 c -6.99053,0 -11.06834,1.03563 -14.62833,3.55999 -3.62471,2.65381 -5.82543,7.18471 -5.82543,11.90978 0,1.55345 0.19418,2.65381 0.84145,4.98399 l 5.43707,-2.45963 c -1.03563,-3.04217 -1.29454,-4.46617 -1.29454,-6.40798 0,-5.82544 3.8189,-9.45016 9.83852,-9.45016 0.77672,0 1.87709,0.0647 3.1069,0.19418 l -4.14253,16.63487 -2.33018,2.97744 h 1.61818 l -1.74763,6.9258 c -2.58909,10.35633 -4.14254,12.16869 -10.29161,12.16869 -0.84145,0 -1.94181,-0.0647 -4.33672,-0.12945 l -2.52435,4.20726 c 1.35927,0.12945 2.52435,0.19418 3.23635,0.19418 3.88363,0 6.66689,-1.22981 10.93888,-4.72508 4.72508,-3.81889 6.40798,-6.60216 7.96143,-12.75123 l 1.55345,-6.2138 c 3.68945,-0.19418 6.73162,-0.38837 6.9258,-0.45309 1.81236,-0.25891 2.33018,-0.58255 3.94835,-2.20072 z" />
      </g>
    </g>
    <g
       id="g5085"
       transform="translate(8.2204942,-2.6458334)"
       style="stroke:#000000;stroke-opacity:1">
      <g
         transform="translate(-192.5381,91.440049)"
         aria-label="ate"
         style="font-style:italic;font-variant:normal;font-weight:500;font-stretch:normal;font-size:48.63042068px;line-height:1.25;font-family:'URW Chancery L';-inkscape-font-specification:'URW Chancery L, Medium Italic';font-variant-ligatures:normal;font-variant-caps:normal;font-variant-numeric:normal;font-feature-settings:normal;text-align:center;letter-spacing:0px;word-spacing:0px;writing-mode:lr-tb;text-anchor:middle;fill:#ffffff;fill-opacity:1;stroke:#000000;stroke-width:0.35277778;stroke-miterlimit:4;stroke-dasharray:none;stroke-opacity:1"
         id="text12947">
        <path
           d="m 236.56374,260.25001 c -3.64728,2.43152 -4.37674,2.86919 -4.86304,2.86919 -0.34041,0 -0.58356,-0.38904 -0.58356,-0.97261 0,-1.26439 1.16713,-6.61374 2.91782,-13.08158 0.53494,-0.72946 0.6322,-0.87535 1.41028,-1.7507 -2.33426,-0.53493 -4.03632,-0.72945 -6.12743,-0.72945 -1.99385,0 -2.91783,0.19452 -4.18222,0.97261 -1.75069,1.02123 -3.79317,2.52878 -4.42536,3.2096 -1.79933,2.04248 -3.84181,8.60759 -3.84181,12.54665 0,2.33426 0.77809,3.89044 1.99385,3.89044 1.06987,0 2.67467,-0.97261 8.75348,-5.34935 -0.48631,2.237 -0.72946,3.74454 -0.72946,4.32811 0,0.63219 0.29178,1.02124 0.77809,1.02124 0.58356,0 0.58356,0 4.47399,-2.48016 1.41029,-0.92397 2.52879,-1.70206 4.37674,-3.06371 z m -9.48293,0.29178 c -2.86919,2.09111 -4.32811,2.91782 -5.20345,2.91782 -0.77809,0 -1.2644,-0.87534 -1.2644,-2.43152 0,-2.43152 0.77809,-5.73839 1.99385,-8.51032 1.16713,-2.67467 2.237,-3.69591 3.89044,-3.69591 0.87534,0 2.38289,0.24315 4.13358,0.63219 -0.97261,3.69591 -1.31302,4.81441 -1.36165,5.05757 -0.29178,1.21576 -0.53494,2.43152 -0.82672,3.69591 -0.0486,0.24315 -0.19452,0.82672 -0.43767,1.70206 z"
           style="font-style:italic;font-variant:normal;font-weight:500;font-stretch:normal;font-size:48.63042068px;font-family:'URW Chancery L';-inkscape-font-specification:'URW Chancery L, Medium Italic';font-variant-ligatures:normal;font-variant-caps:normal;font-variant-numeric:normal;font-feature-settings:normal;text-align:center;writing-mode:lr-tb;text-anchor:middle;fill:#ffffff;fill-opacity:1;stroke:#000000;stroke-width:0.35277778;stroke-miterlimit:4;stroke-dasharray:none;stroke-opacity:1"
           id="path4959" />
        <path
           d="m 250.71139,260.44453 c -3.69591,2.18837 -5.25208,3.01508 -5.93291,3.01508 -0.63219,0 -1.41028,-1.26439 -1.41028,-2.28563 0,-0.68082 0.82672,-4.42536 2.09111,-9.53156 0.68083,-0.0486 1.16713,-0.0486 1.41028,-0.0486 l 1.94522,-0.0486 c 0.19452,0 0.68082,-0.0486 1.45891,-0.14589 l 1.84796,-1.41028 h -6.2247 l 1.94522,-7.87813 c -0.92398,0.4863 -1.31302,0.63219 -2.04248,0.97261 -0.34041,0.19452 -0.72945,0.34041 -1.1185,0.53493 -0.19452,0.0973 -0.43767,0.19452 -0.68082,0.29178 l -1.36165,6.07881 c -0.43768,0.0486 -0.72946,0.0486 -0.87535,0.0486 h -1.16713 c -0.0973,0 -0.34042,0 -0.72946,0.0486 -0.53493,0.34041 -0.58356,0.34041 -1.41028,1.02124 -0.14589,0.0973 -0.38904,0.29178 -0.72946,0.53493 h 1.16713 2.237 1.06987 c -2.57741,10.79595 -2.57741,10.79595 -2.57741,12.3035 0,1.55617 1.02124,3.25824 1.94522,3.25824 1.06987,0 4.37673,-2.04248 9.04525,-5.54387 z"
           style="font-style:italic;font-variant:normal;font-weight:500;font-stretch:normal;font-size:48.63042068px;font-family:'URW Chancery L';-inkscape-font-specification:'URW Chancery L, Medium Italic';font-variant-ligatures:normal;font-variant-caps:normal;font-variant-numeric:normal;font-feature-settings:normal;text-align:center;writing-mode:lr-tb;text-anchor:middle;fill:#ffffff;fill-opacity:1;stroke:#000000;stroke-width:0.35277778;stroke-miterlimit:4;stroke-dasharray:none;stroke-opacity:1"
           id="path4961" />
        <path
           d="m 267.11504,259.90959 c -3.64728,3.16098 -5.98154,4.52263 -7.82949,4.52263 -1.21576,0 -2.237,-0.82672 -2.57742,-2.09111 -0.19452,-0.77808 -0.24315,-1.31302 -0.24315,-2.7233 2.18837,-1.36165 3.64728,-2.38289 6.51648,-4.52263 2.62604,-1.99385 3.64728,-3.59865 3.64728,-5.78702 0,-1.70206 -1.06987,-2.7233 -2.77193,-2.7233 -1.06987,0 -1.84796,0.24315 -2.96646,0.87535 -1.84795,1.06986 -3.50139,2.38289 -4.52263,3.55002 -1.84795,2.237 -3.50139,7.58634 -3.50139,11.52541 0,2.86919 1.50754,4.66852 3.9877,4.66852 2.86919,0 6.41921,-2.04248 10.26101,-5.88428 z m -10.50417,-2.04247 c 0.82672,-5.20346 3.06372,-9.23978 5.15483,-9.23978 0.82672,0 1.36165,0.82671 1.36165,1.99384 0,2.43152 -1.31302,3.89044 -6.51648,7.24594 z"
           style="font-style:italic;font-variant:normal;font-weight:500;font-stretch:normal;font-size:48.63042068px;font-family:'URW Chancery L';-inkscape-font-specification:'URW Chancery L, Medium Italic';font-variant-ligatures:normal;font-variant-caps:normal;font-variant-numeric:normal;font-feature-settings:normal;text-align:center;writing-mode:lr-tb;text-anchor:middle;fill:#ffffff;fill-opacity:1;stroke:#000000;stroke-width:0.35277778;stroke-miterlimit:4;stroke-dasharray:none;stroke-opacity:1"
           id="path4963" />
      </g>
      <g
         transform="translate(-190.95059,91.440049)"
         aria-label="F"
         style="font-style:italic;font-variant:normal;font-weight:500;font-stretch:normal;font-size:64.72708893px;line-height:1.25;font-family:'URW Chancery L';-inkscape-font-specification:'URW Chancery L, Medium Italic';font-variant-ligatures:normal;font-variant-caps:normal;font-variant-numeric:normal;font-feature-settings:normal;text-align:center;letter-spacing:0px;word-spacing:0px;writing-mode:lr-tb;text-anchor:middle;fill:#ffffff;fill-opacity:1;stroke:#000000;stroke-width:0.35277778;stroke-miterlimit:4;stroke-dasharray:none;stroke-opacity:1"
         id="text12955">
        <path
           d="m 203.56214,251.5888 4.14254,-16.63487 10.35633,0.25891 c 0.84145,-0.712 2.71854,-2.13599 4.07781,-2.97744 0.32363,-0.77673 0.38836,-0.90618 0.64727,-1.81236 -2.71854,1.6829 -4.98399,2.26545 -8.6087,2.26545 l -8.67343,-0.0647 c -6.99053,0 -11.06834,1.03563 -14.62833,3.55999 -3.62471,2.65381 -5.82543,7.18471 -5.82543,11.90978 0,1.55345 0.19418,2.65381 0.84145,4.98399 l 5.43707,-2.45963 c -1.03563,-3.04217 -1.29454,-4.46617 -1.29454,-6.40798 0,-5.82544 3.8189,-9.45016 9.83852,-9.45016 0.77672,0 1.87709,0.0647 3.1069,0.19418 l -4.14253,16.63487 -2.33018,2.97744 h 1.61818 l -1.74763,6.9258 c -2.58909,10.35633 -4.14254,12.16869 -10.29161,12.16869 -0.84145,0 -1.94181,-0.0647 -4.33672,-0.12945 l -2.52435,4.20726 c 1.35927,0.12945 2.52435,0.19418 3.23635,0.19418 3.88363,0 6.66689,-1.22981 10.93888,-4.72508 4.72508,-3.81889 6.40798,-6.60216 7.96143,-12.75123 l 1.55345,-6.2138 c 3.68945,-0.19418 6.73162,-0.38837 6.9258,-0.45309 1.81236,-0.25891 2.33018,-0.58255 3.94835,-2.20072 z"
           style="font-style:italic;font-variant:normal;font-weight:500;font-stretch:normal;font-size:64.72708893px;font-family:'URW Chancery L';-inkscape-font-specification:'URW Chancery L, Medium Italic';font-variant-ligatures:normal;font-variant-caps:normal;font-variant-numeric:normal;font-feature-settings:normal;text-align:center;writing-mode:lr-tb;text-anchor:middle;fill:#ffffff;fill-opacity:1;stroke:#000000;stroke-width:0.35277778;stroke-miterlimit:4;stroke-dasharray:none;stroke-opacity:1"
           id="path4966" />
      </g>
    </g>
  </g>
</svg>
