<?xml version="1.0" encoding="UTF-8" standalone="no"?>
<!-- Created with Inkscape (http://www.inkscape.org/) -->

<svg
   xmlns:dc="http://purl.org/dc/elements/1.1/"
   xmlns:cc="http://creativecommons.org/ns#"
   xmlns:rdf="http://www.w3.org/1999/02/22-rdf-syntax-ns#"
   xmlns:svg="http://www.w3.org/2000/svg"
   xmlns="http://www.w3.org/2000/svg"
   xmlns:sodipodi="http://sodipodi.sourceforge.net/DTD/sodipodi-0.dtd"
   xmlns:inkscape="http://www.inkscape.org/namespaces/inkscape"
   id="Layer_1"
   xml:space="preserve"
   version="1.0"
   viewBox="0 0 707 291"
   inkscape:version="0.92.4 (unknown)"
   sodipodi:docname="deeds.svg"><sodipodi:namedview
   pagecolor="#ffffff"
   bordercolor="#666666"
   borderopacity="1"
   objecttolerance="10"
   gridtolerance="10"
   guidetolerance="10"
   inkscape:pageopacity="0"
   inkscape:pageshadow="2"
   inkscape:window-width="1920"
   inkscape:window-height="1012"
   id="namedview1023"
   showgrid="false"
   inkscape:zoom="1.1663002"
   inkscape:cx="353.5"
   inkscape:cy="145.5"
   inkscape:window-x="0"
   inkscape:window-y="0"
   inkscape:window-maximized="1"
   inkscape:current-layer="Layer_1" /><defs
   id="defs61">
<metadata
   id="metadata987">
<rdf:RDF>
      <cc:Work
   rdf:about="">
         <dc:title></dc:title>
         <dc:description>Parchment Background</dc:description>
         <dc:subject>
          <rdf:Bag>
            <rdf:li>border</rdf:li>
            <rdf:li>background</rdf:li>
		<rdf:li>parchment</rdf:li>
          </rdf:Bag>
         </dc:subject>
         <dc:publisher><cc:Agent
     rdf:about="http://www.openclipart.org/"><dc:title>Open Clip Art Project</dc:title></cc:Agent></dc:publisher>
         <dc:creator><cc:Agent
     rdf:about=""><dc:title>Gerald G.</dc:title></cc:Agent></dc:creator>
         <dc:rights><cc:Agent
     rdf:about="http://web.resource.org/cc/PublicDomain"><dc:title>Public Domain</dc:title></cc:Agent></dc:rights>
         <dc:date>2006/09/25</dc:date>
         <dc:format>image/svg+xml</dc:format>
         <dc:type
   rdf:resource="http://purl.org/dc/dcmitype/StillImage">http://purl.org/dc/dcmitype/StillImage</dc:type>
         <cc:license
   rdf:resource="http://web.resource.org/cc/PublicDomain" />
      </cc:Work>
      <cc:License
   rdf:about="http://web.resource.org/cc/PublicDomain">
         <cc:permits
   rdf:resource="http://web.resource.org/cc/Reproduction" />
         <cc:permits
   rdf:resource="http://web.resource.org/cc/Distribution" />
         <cc:permits
   rdf:resource="http://web.resource.org/cc/DerivativeWorks" />
      </cc:License>
   </rdf:RDF>
</metadata>
	<linearGradient
   id="XMLID_4_"
   y2="138.34"
   gradientUnits="userSpaceOnUse"
   x2="683.31"
   y1="138.34"
   x1="655.95">
		<stop
   id="stop18"
   style="stop-color:#8d5c34"
   offset=".0048" />
		<stop
   id="stop20"
   style="stop-color:#93633b"
   offset=".1429" />
		<stop
   id="stop22"
   style="stop-color:#e8d0a9"
   offset=".29520" />
		<stop
   id="stop24"
   style="stop-color:#e3cba4"
   offset=".63810" />
		<stop
   id="stop26"
   style="stop-color:#93633a"
   offset=".93330" />
		<stop
   id="stop28"
   style="stop-color:#8d5c34"
   offset="1" />
	</linearGradient>
	<linearGradient
   id="XMLID_5_"
   y2="138.32"
   gradientUnits="userSpaceOnUse"
   x2="666.1"
   y1="138.32"
   x1="32.786">
		<stop
   id="stop35"
   style="stop-color:#8d5c34"
   offset="0" />
		<stop
   id="stop37"
   style="stop-color:#d1b38b"
   offset=".0333" />
		<stop
   id="stop39"
   style="stop-color:#e3cba4"
   offset=".91430" />
		<stop
   id="stop41"
   style="stop-color:#8d5c34"
   offset="1" />
	</linearGradient>
	<linearGradient
   id="XMLID_6_"
   y2="136.83"
   gradientUnits="userSpaceOnUse"
   x2="34.118"
   y1="136.83"
   x1="8.7383">
		<stop
   id="stop46"
   style="stop-color:#8d5c34"
   offset=".1286" />
		<stop
   id="stop48"
   style="stop-color:#e8d0a9"
   offset=".29050" />
		<stop
   id="stop50"
   style="stop-color:#e3cba4"
   offset=".5952" />
		<stop
   id="stop52"
   style="stop-color:#8d5c34"
   offset="1" />
	</linearGradient>
	<filter
   id="filter3211"><feGaussianBlur
     id="feGaussianBlur3213"
     stdDeviation="2.3429775"
     inkscape:collect="always" /></filter></defs>
<g
   id="g3215"><path
     id="path2218"
     style="fill-rule:evenodd;filter:url(#filter3211);stroke:#000000;stroke-miterlimit:10;stroke-width:.036;fill:#4d4d4d"
     d="m674.76 10.955c-2.27-0.359-4.75-0.359-7.63 0-2.92 0.324-6.95 1.188-10.48 2.195v3.744l-19.48-0.144-11.01-0.647-11.02 0.324-10.11 0.215s1.11 9.504 1 12.564c-0.32 11.7-3.52-1.764-7.7 10.188-2.16 6.192-1.48 8.785-1.48 8.785s-5.32-2.341-7.09-6.769c-9.07-22.824-10.44 10.8-19.01 1.764-2.23-2.34-1.65-3.888-1.83-8.1s1.22-4.104 1.08-8.748c-0.11-4.644-1.59-9.792-1.59-9.792s-15.62 0.72-33.87 0.576c-18.26-0.18-21.46-0.324-39.5-0.684-18.03-0.361-32.21-0.217-32.21-0.217-36.08-0.072-18.65-0.107-22.11 0-3.53 0.072-8.28 0.54-11.56 0.792-3.24 0.216-5.76 0.72-7.84 0.647-0.29 0.504-0.29 1.656 0 3.529 0.25 1.871 1.72 5.399 1.58 7.596-0.18 2.16-1.01 3.852-2.56 5.256 0.69-1.98 1.01-3.6 0.98-4.969-0.08-1.403-0.83-1.332-1.3-3.203-0.43-1.944-0.83-4.608-1.26-8.209-3.1-0.035-6.55-0.252-10.51-0.575-3.93-0.36-7.31-1.62-13.03-1.476-5.73 0.18-15.3 1.979-20.99 2.34-5.65 0.359-9.83 0.252-12.75-0.289-3.42-0.828-7.59-1.295-12.7-1.439-5.15-0.145-12.6 0.288-17.82 0.576-5.19 0.288-7.17 0.828-13.04 1.152-5.9 0.359-15.8 0.936-21.96 0.899-6.12-0.071-9.93-1.296-14.65-1.188-4.68 0.109-9.07 0.685-13.35 1.765-0.26 0.792-0.69 1.728-1.26 2.916-0.58 1.188-1.91 1.944-2.24 4.104-0.28 2.16 0.54 7.199 0.33 8.748-0.22 1.512-0.72 1.619-1.59 0.287 0.51-2.592 0.44-4.896-0.32-6.984-0.76-2.123-3.17-3.959-4.14-5.58-0.94-1.619 0.29-3.096-1.58-4.067-1.88-1.008-3.96-1.548-9.54-1.764-5.66-0.181-17.46 0.396-23.87 0.575-6.37 0.217-8.61 0.181-14.22 0.576-5.62 0.396 9.54 1.656-19.44 1.765-7.81 0.108-15.63 0.252-23.44 0.396-8.57-0.216-17.13-0.468-25.7-0.72-5.33 0.108-10.66 0.216-16.02 0.36-1.87 1.332-3.75 2.699-5.62 4.068 0 0 0.07-0.613-0.11 0.647-0.21 1.296-0.72 4.5-0.72 4.5-1.33 1.584-2.66 3.168-3.99 4.788 0 0 0.61-1.584 0-3.672-0.61-2.125-1.91-2.053-2.41-4.789-0.51-2.771 0.39-6.264 0.39-6.264-8.42-0.107-16.845-0.252-25.269-0.396-6.264-0.108-12.564-0.216-18.864-0.36-29.34 0.108 41.943 1.152-32.4 0.288 0.108-1.728 0.216-3.491 0.324-5.256-2.988-2.304-6.228-3.384-9.864-3.239-3.636 0.18-7.488 1.512-11.772 4.104-1.473 84.026-2.949 168.05-4.425 252.11 0.144 0.22 1.296 0.51 3.492 0.9 2.196 0.4 5.328 0.87 9.54 1.44 0.612 0.76 1.26 1.55 1.908 2.34 3.096 0.11 5.58-0.07 7.632-0.57 2.052-0.51 3.492-1.26 4.464-2.34-0.18-2.31-0.36-4.65-0.576-6.99 8.136 0.11 16.308 0.22 24.48 0.36 12.564 0.36 25.128 0.72 37.692 1.12 10.438-0.22 20.878-0.47 31.318-0.72v-4.43c0.94-3.56 1.87-7.13 2.81-10.69 0.79 2.09 1.58 4.17 2.38 6.26-0.11 2.7-0.26 5.4-0.4 8.1 34.16-0.18 58.32-0.07 73.84 0.36 15.33 0.44 11.77 2.2 17.92 2.23 6.16 0.04 13.58-1.69 18.76-2.01 5.18-0.36 7.67 0.11 12.1 0 4.42-0.18 9.14-0.43 14.32-0.9 0-2.2 0.22-4.03 0.62-5.55 0.43-1.51 1.08-2.66 1.9-3.49-0.61 1.95-0.72 3.78-0.32 5.55 0.47 1.76 1.4 3.38 2.88 4.96 5.98 0.62 11.63 1.01 17.17 1.16 5.58 0.14 10.77 0.07 15.91-0.29-0.64-1.66-0.86-3.21-0.64-4.68 0.25-1.48 1.54-2.13 1.9-4.07 0.4-1.98 0.51-4.46 0.33-7.6 0 0.62 0.11 1.48 0.32 2.63 0.22 1.12 0.76 2.67 0.97 4.07 0.18 1.44-0.32 2.95 0.29 4.39 0.65 1.44 0.79 3.06 3.53 4.11 2.74 1 7.99 1.83 12.71 2.01 4.71 0.22 12.17 0.22 15.26-0.86 3.1-1.08 1.44-5.47 3.21-5.54 1.76-0.04 3.77 4.39 7.3 5.25 3.53 0.83 8.86-0.25 13.68-0.29 4.83-0.03 9.72-0.03 14.94 0 0.94-1.22 1.77-2.59 2.56-4.1s1.22-5 2.23-4.97c1.01 0.07 3.6 4.07 3.82 5.26 0.21 1.19-3.06 0.79-2.56 1.76 0.54 0.97 1.33 3.6 5.72 4.11 4.47 0.46 11.24 0.1 20.71-1.19 0.79-4.11 1.94-6.12 3.49-6.12 1.54 0 3.17 4.97 5.72 6.12 2.48 1.11-1.08 1.15 39.28 1.37l36.1-0.73 40.9-0.35s-0.69-3.78-0.4-6.27c0.33-2.48-1.47-5.36-0.39-5.9 1.12-0.54 3.92 4.89 6.41 3.67 2.52-1.19 4.82-6.62 4.82-6.62s2.74-2.38 4.03-1.12c1.3 1.3 1.59 3.31 1.98 6.66 0.43 3.31-1.4 4.03-0.39 6.62 1 2.56 4.42 3.68 4.42 3.68l40.5 1.47 16.46-0.36c41.04 0.25 48.52-0.65 48.52-0.65s2.31 2.85 5.4 3.21c3.14 0.32 7.38-0.04 13.03-1.15-1.04-83.16-2.08-166.32-3.16-249.52-1.73-0.862-3.17-1.546-4.47-2.05-1.26-0.469-2.3-0.756-3.16-0.865-0.22-1.261-0.43-2.521-0.65-3.78zm7.02 7.271c-3.24 0.648-6.34 0.828-9.54 0.612-3.24-0.252-7.31-1.224-9.58-2.052-2.23-0.828-3.45-1.801-3.81-2.916 0.18 7.416 0.68 21.096 1.62 41.76 0.9 20.771 2.3 46.37 3.81 81.5 1.48 35.28 3.17 77.19 5.08 127.98 2.05 1.12 4.32 1.69 6.98 1.73 2.7 0.07 5.62-0.39 8.93-1.44-1.15-82.37-2.3-164.77-3.49-247.17v-0.004zm-14.36 245.3c-113.91-0.58-73.44 0.76-90.69 0 0 0-9.32 0.22-13.25-1.08-3.89-1.3-1.51-0.65-2.41-4.07s-0.07-6.08-1.19-9.57c-1.11-3.5-3.2-4.43-3.2-4.43s-4.93 1.47-7.24 3.71c-2.3 2.19-2.01 5.14-2.01 5.14s-4.68-5.43-6.81-4.78c-2.09 0.64-1.11 3.96-1.62 7.38-0.47 3.38-0.39 6.26-0.39 6.26-17.25-0.76-46.91 0-46.91 0-12.71 0.22-25.42 0.47-38.12 0.72-40-0.18-22.9 1.08-25.74-0.04-2.88-1.15-5.11-5.68-6.99-6.73-1.87-1.01-3.02-0.57-4.14 0.58-1.11 1.19-1.94 3.31-2.55 6.44-4.54 0.4-8.39 0.58-11.77 0.58-3.35 0-6.7-0.04-8.25-0.58s-1.08-1.91-0.97-2.63 1.8-0.75 1.58-1.76c-0.21-1.01-1.73-3.24-2.84-4.36-1.15-1.15-2.74-2.73-3.82-2.34-1.08 0.4-1.76 3.03-2.55 4.65-0.83 1.62-1.55 3.27-2.23 4.97-6.09-0.18-11.2-0.29-15.59-0.29-4.4 0-7.82 0.83-10.52 0.29-2.62-0.54-3.78-2.41-5.39-3.49-1.59-1.08-2.99-2.81-4.15-2.92-1.11-0.11-1.9 1.26-2.52 2.34-0.64 1.08 1.12 3.2-1.29 4.07-2.41 0.9-8.89 1.33-13.03 1.19-4.14-0.18-8.82-1.12-11.52-2.06-2.7-0.93-3.57-1.36-4.47-3.49-0.9-2.16-0.21-6.98-0.97-9.36-0.72-2.34-1.87-3.89-3.49-4.68 0.54 3.06 0.65 5.65 0.32 7.89-0.32 2.26-1.62 3.74-2.23 5.54-0.58 1.84-1.01 3.56-1.26 5.29-0.65 0.04-3.28 0.04-7.96 0-4.71-0.07-11.26-0.14-20.05-0.32-1.44-1.51-2.48-3.24-3.17-5.26-0.68-2.01-1-4.21-0.97-6.69-1.33 1.08-2.37 2.41-3.17 4.06-0.79 1.7-1.33 3.6-1.58 5.87-12.02-0.07-21.6 0.11-29.27 0.58-7.63 0.43-9.18 1.98-14.79 1.94-5.58-0.07 6.04-1.55-25.28-2.05-7.16-0.29-14.32-0.58-21.49-0.9h-28.47c-4.29-0.11-8.57-0.25-12.86-0.4-0.5-2.55-1.04-5.14-1.58-7.74-1.48-2.3-2.95-4.64-4.43-6.98 0 0-2.09 4.5-3.2 8.1-1.12 3.6-1.19 7.02-1.19 7.02-7.49 0.47-14.98 0.97-22.46 1.48-31.792-0.51 14.65-1.44-68.368-1.33-0.396-79.56-0.828-159.12-1.26-238.72 15.552 0.433 31.14 0.865 46.728 1.297 9.36-0.217 18.72-0.469 28.12-0.721 0 0-1.12 3.385-0.83 5.904 0.32 2.484 1.51 1.26 2.01 4.032 0.51 2.772-0.9 3.96 0 7.021 0.9 3.023 3.6 5.147 3.6 5.147s-1.58-4.608-0.39-7.38c1.22-2.771 3.6-1.116 5.22-3.672 1.62-2.592-0.79-4.141 1.19-6.625 2.01-2.483 6.84-3.311 6.84-3.311h32.5c10.52 0.107 19.88-0.037 28.52-0.505 8.67-0.504 16.81-1.836 22.89-2.34 6.09-0.504 7.02-0.504 13.29-0.576 6.33-0.108 19.08-0.396 24.19 0 5.07 0.396 4.82 1.476 6.05 2.341 1.22 0.827 0.36 0.936 1.26 2.627 0.93 1.656 3.34 4.824 4.14 7.309 0.79 2.447-0.15 5.832 0.64 7.271 0.83 1.44 3.42 2.16 4.14 1.188 0.69-1.009-0.21-4.572 0-7.021 0.22-2.447 0.47-5.615 1.26-7.596 0.8-1.943 1.95-3.275 3.5-4.104 4.75-0.864 8.82-1.332 12.42-1.44 3.56-0.108 3.49 0.756 8.89 0.864 5.51 0.107 15.69 0.144 23.54-0.288 7.89-0.433 17.43-2.052 23.22-2.341 5.76-0.287 6.52 0.145 11.16 0.576 4.65 0.469 10.98 1.836 16.52 2.053 5.58 0.216 11.2-0.324 16.57-0.864 5.32-0.54 11.44-2.231 15.26-2.34 3.78-0.108 4.18 1.26 7.31 1.764 3.17 0.468 6.91 0.864 11.45 1.152 1.65 3.132 2.59 6.12 2.88 9.071 0.25 2.916-0.15 5.725-1.3 8.461 2.95-2.881 4.93-5.185 6.05-7.021 1.11-1.8 0.9-1.979 0.65-3.78-0.26-1.836-1.01-4.14-2.24-7.02 0.98-0.504 3.5-0.864 7.64-1.152 4.14-0.324-3.53-0.9 34.16-0.9l27.07-0.107 40 0.792 18.68-0.323 16.89-0.252s1.04 5.075 1 10.151c-0.07 5.04-1.69 5.651-1.22 10.116 0.43 4.428 0.25 5.615 3.06 7.632 12.78 9.071 8.28-24.624 19.76-2.124 2.71 5.292 8.68 9.107 8.68 9.107s-0.72-4.428 1.23-11.123c3.34-11.34 7.84-1.008 7.38-12.205-0.15-2.987-1.16-11.195-1.16-11.195s5.69-0.288 18.62-0.792c12.92-0.468 31.96 1.224 31.96 1.224 3.56 81.648 7.17 163.3 10.77 244.98zm6.08-251.14c0.4 1.26 0.83 2.521 1.26 3.816 1.48 0.359 2.95 0.756 4.46 1.152-3.42 0.18-6.55 0-9.54-0.576-2.98-0.611-5.68-1.549-8.28-2.916 2.67-0.936 4.97-1.512 6.99-1.764 2.05-0.251 3.71-0.144 5.11 0.288zm-661.79 253.59c1.764-0.83 3.96-1.3 6.66-1.44 2.736-0.18 6.66 0.07 9.576 0.57 2.88 0.47 5.364 1.26 7.632 2.34-1.296 0.9-2.664 1.52-4.14 1.73-1.512 0.25-3.06 0.15-4.788-0.29-1.044-0.68-2.088-1.36-3.168-2.05-3.924-0.29-7.848-0.57-11.772-0.86zm23.868-0.87c-0.432-24.01-0.756-56.16-0.972-98.17-0.216-42.15-0.324-92.013-0.324-152.21-0.756-1.903-2.628-2.767-5.724-2.623s-7.272 1.295-12.708 3.492c-1.368 82.655-2.736 165.35-4.14 248.04 4.176-0.94 7.812-1.41 11.124-1.44 3.312-0.07 6.444 0.65 8.604 1.15 2.124 0.5 3.492 1.08 4.14 1.76z" /><g
     id="g11">
			<path
   id="path13"
   style="fill-rule:evenodd"
   d="m672.58 8.643c-2.27-0.359-4.75-0.359-7.64 0-2.91 0.324-6.94 1.188-10.47 2.195v3.744l-19.48-0.144-11.01-0.647-11.02 0.324-10.12 0.215s1.12 9.504 1.01 12.564c-0.32 11.7-3.53-1.764-7.7 10.188-2.16 6.192-1.48 8.785-1.48 8.785s-5.33-2.341-7.09-6.769c-9.07-22.824-10.44 10.8-19.01 1.764-2.23-2.34-1.65-3.888-1.83-8.1s1.22-4.104 1.08-8.748c-0.11-4.644-1.59-9.792-1.59-9.792s-15.62 0.72-33.87 0.576c-18.26-0.18-21.46-0.324-39.5-0.684-18.03-0.361-32.22-0.217-32.22-0.217-36.07-0.072-18.64-0.107-22.1 0-3.53 0.072-8.28 0.54-11.56 0.792-3.24 0.216-5.76 0.72-7.84 0.647-0.29 0.504-0.29 1.656 0 3.529 0.25 1.871 1.72 5.399 1.58 7.596-0.18 2.16-1.01 3.852-2.56 5.256 0.69-1.98 1.01-3.6 0.98-4.969-0.08-1.403-0.83-1.332-1.3-3.203-0.43-1.944-0.83-4.608-1.26-8.209-3.1-0.035-6.56-0.252-10.51-0.575-3.93-0.36-7.31-1.62-13.03-1.476-5.73 0.18-15.31 1.979-20.99 2.34-5.65 0.359-9.83 0.252-12.75-0.289-3.42-0.828-7.59-1.295-12.71-1.439-5.14-0.145-12.6 0.288-17.81 0.576-5.19 0.288-7.17 0.828-13.04 1.152-5.9 0.359-15.8 0.936-21.96 0.899-6.12-0.071-9.93-1.296-14.65-1.188-4.68 0.109-9.07 0.685-13.35 1.765-0.26 0.792-0.69 1.728-1.26 2.916-0.58 1.188-1.91 1.944-2.24 4.104-0.28 2.16 0.54 7.199 0.33 8.748-0.22 1.512-0.72 1.619-1.59 0.287 0.51-2.592 0.44-4.896-0.32-6.984-0.76-2.123-3.17-3.959-4.14-5.58-0.94-1.619 0.29-3.096-1.58-4.067-1.88-1.008-3.96-1.548-9.54-1.764-5.66-0.181-17.46 0.396-23.87 0.575-6.37 0.217-8.61 0.181-14.22 0.576-5.62 0.396 9.54 1.656-19.44 1.765-7.81 0.108-15.63 0.252-23.44 0.396-8.57-0.216-17.13-0.468-25.7-0.72-5.33 0.108-10.66 0.216-16.02 0.36-1.87 1.332-3.75 2.699-5.62 4.068 0 0 0.07-0.613-0.11 0.647-0.21 1.296-0.72 4.5-0.72 4.5-1.33 1.584-2.66 3.168-3.99 4.788 0 0 0.61-1.584 0-3.672-0.61-2.125-1.91-2.053-2.41-4.789-0.51-2.771 0.39-6.264 0.39-6.264-8.42-0.107-16.847-0.252-25.271-0.396-6.264-0.108-12.564-0.216-18.864-0.36-29.34 0.108 41.945 1.152-32.4 0.288 0.108-1.728 0.216-3.491 0.324-5.256-2.988-2.304-6.228-3.384-9.864-3.239-3.636 0.18-7.488 1.512-11.772 4.104-1.473 84.026-2.949 168.05-4.425 252.11 0.144 0.22 1.296 0.51 3.492 0.9 2.196 0.4 5.328 0.86 9.54 1.44 0.612 0.76 1.26 1.55 1.908 2.34 3.096 0.11 5.58-0.07 7.632-0.58 2.052-0.5 3.492-1.26 4.464-2.34-0.18-2.3-0.36-4.64-0.576-6.98 8.136 0.11 16.308 0.22 24.48 0.36 12.564 0.36 25.128 0.72 37.692 1.12 10.44-0.22 20.88-0.47 31.32-0.72v-4.43c0.94-3.57 1.87-7.13 2.81-10.69 0.79 2.08 1.58 4.17 2.37 6.26-0.1 2.7-0.25 5.4-0.39 8.1 34.16-0.18 58.32-0.07 73.83 0.36 15.34 0.43 11.78 2.2 17.93 2.23 6.16 0.04 13.57-1.69 18.76-2.01 5.18-0.36 7.67 0.1 12.09 0 4.43-0.18 9.15-0.44 14.33-0.9 0-2.2 0.22-4.04 0.61-5.55 0.44-1.51 1.08-2.66 1.91-3.49-0.61 1.94-0.72 3.78-0.32 5.54 0.47 1.77 1.4 3.39 2.88 4.97 5.97 0.61 11.63 1.01 17.17 1.15 5.58 0.15 10.76 0.08 15.91-0.28-0.65-1.66-0.86-3.21-0.65-4.68 0.26-1.48 1.55-2.13 1.91-4.07 0.4-1.98 0.51-4.47 0.33-7.6 0 0.61 0.1 1.48 0.32 2.63 0.22 1.12 0.76 2.66 0.97 4.07 0.18 1.44-0.32 2.95 0.29 4.39 0.65 1.44 0.79 3.06 3.53 4.1 2.73 1.01 7.99 1.84 12.71 2.02 4.71 0.22 12.16 0.22 15.26-0.86s1.44-5.47 3.2-5.55c1.77-0.03 3.78 4.4 7.31 5.26 3.53 0.83 8.86-0.25 13.68-0.29 4.83-0.03 9.72-0.03 14.94 0 0.94-1.22 1.77-2.59 2.56-4.1 0.79-1.52 1.22-5.01 2.23-4.97 1.01 0.07 3.6 4.07 3.81 5.26 0.22 1.18-3.05 0.79-2.55 1.76 0.54 0.97 1.33 3.6 5.72 4.1 4.47 0.47 11.23 0.11 20.7-1.18 0.79-4.11 1.95-6.12 3.5-6.12 1.54 0 3.16 4.96 5.72 6.12 2.48 1.11-1.08 1.15 39.28 1.36l36.1-0.72 40.9-0.36s-0.69-3.78-0.4-6.26c0.33-2.48-1.47-5.36-0.39-5.9 1.11-0.54 3.92 4.89 6.4 3.67 2.52-1.19 4.83-6.63 4.83-6.63s2.73-2.37 4.03-1.11c1.3 1.29 1.58 3.31 1.98 6.66 0.43 3.31-1.4 4.03-0.4 6.62 1.01 2.56 4.43 3.67 4.43 3.67l40.5 1.48 16.45-0.36c41.04 0.25 48.53-0.65 48.53-0.65s2.31 2.85 5.4 3.21c3.13 0.32 7.38-0.04 13.03-1.15-1.04-83.16-2.08-166.32-3.16-249.52-1.73-0.864-3.17-1.548-4.47-2.052-1.26-0.469-2.3-0.756-3.17-0.865-0.21-1.261-0.42-2.521-0.64-3.78z" />
			<path
   id="path15"
   style="stroke:#000000;stroke-width:.036;stroke-miterlimit:10;fill:none"
   d="m672.58 8.643c-2.27-0.359-4.75-0.359-7.64 0-2.91 0.324-6.94 1.188-10.47 2.195v3.744l-19.48-0.144-11.01-0.647-11.02 0.324-10.12 0.215s1.12 9.504 1.01 12.564c-0.32 11.7-3.53-1.764-7.7 10.188-2.16 6.192-1.48 8.785-1.48 8.785s-5.33-2.341-7.09-6.769c-9.07-22.824-10.44 10.8-19.01 1.764-2.23-2.34-1.65-3.888-1.83-8.1s1.22-4.104 1.08-8.748c-0.11-4.644-1.59-9.792-1.59-9.792s-15.62 0.72-33.87 0.576c-18.26-0.18-21.46-0.324-39.5-0.684-18.03-0.361-32.22-0.217-32.22-0.217-36.07-0.072-18.64-0.107-22.1 0-3.53 0.072-8.28 0.54-11.56 0.792-3.24 0.216-5.76 0.72-7.84 0.647-0.29 0.504-0.29 1.656 0 3.529 0.25 1.871 1.72 5.399 1.58 7.596-0.18 2.16-1.01 3.852-2.56 5.256 0.69-1.98 1.01-3.6 0.98-4.969-0.08-1.403-0.83-1.332-1.3-3.203-0.43-1.944-0.83-4.608-1.26-8.209-3.1-0.035-6.56-0.252-10.51-0.575-3.93-0.36-7.31-1.62-13.03-1.476-5.73 0.18-15.31 1.979-20.99 2.34-5.65 0.359-9.83 0.252-12.75-0.289-3.42-0.828-7.59-1.295-12.71-1.439-5.14-0.145-12.6 0.288-17.81 0.576-5.19 0.288-7.17 0.828-13.04 1.152-5.9 0.359-15.8 0.936-21.96 0.899-6.12-0.071-9.93-1.296-14.65-1.188-4.68 0.109-9.07 0.685-13.35 1.765-0.26 0.792-0.69 1.728-1.26 2.916-0.58 1.188-1.91 1.944-2.24 4.104-0.28 2.16 0.54 7.199 0.33 8.748-0.22 1.512-0.72 1.619-1.59 0.287 0.51-2.592 0.44-4.896-0.32-6.984-0.76-2.123-3.17-3.959-4.14-5.58-0.94-1.619 0.29-3.096-1.58-4.067-1.88-1.008-3.96-1.548-9.54-1.764-5.66-0.181-17.46 0.396-23.87 0.575-6.37 0.217-8.61 0.181-14.22 0.576-5.62 0.396 9.54 1.656-19.44 1.765-7.81 0.108-15.63 0.252-23.44 0.396-8.57-0.216-17.13-0.468-25.7-0.72-5.33 0.108-10.66 0.216-16.02 0.36-1.87 1.332-3.75 2.699-5.62 4.068 0 0 0.07-0.613-0.11 0.647-0.21 1.296-0.72 4.5-0.72 4.5-1.33 1.584-2.66 3.168-3.99 4.788 0 0 0.61-1.584 0-3.672-0.61-2.125-1.91-2.053-2.41-4.789-0.51-2.771 0.39-6.264 0.39-6.264-8.42-0.107-16.847-0.252-25.271-0.396-6.264-0.108-12.564-0.216-18.864-0.36-29.34 0.108 41.945 1.152-32.4 0.288 0.108-1.728 0.216-3.491 0.324-5.256-2.988-2.304-6.228-3.384-9.864-3.239-3.636 0.18-7.488 1.512-11.772 4.104-1.473 84.026-2.949 168.05-4.425 252.11 0.144 0.22 1.296 0.51 3.492 0.9 2.196 0.4 5.328 0.86 9.54 1.44 0.612 0.76 1.26 1.55 1.908 2.34 3.096 0.11 5.58-0.07 7.632-0.58 2.052-0.5 3.492-1.26 4.464-2.34-0.18-2.3-0.36-4.64-0.576-6.98 8.136 0.11 16.308 0.22 24.48 0.36 12.564 0.36 25.128 0.72 37.692 1.12 10.44-0.22 20.88-0.47 31.32-0.72v-4.43c0.94-3.57 1.87-7.13 2.81-10.69 0.79 2.08 1.58 4.17 2.37 6.26-0.1 2.7-0.25 5.4-0.39 8.1 34.16-0.18 58.32-0.07 73.83 0.36 15.34 0.43 11.78 2.2 17.93 2.23 6.16 0.04 13.57-1.69 18.76-2.01 5.18-0.36 7.67 0.1 12.09 0 4.43-0.18 9.15-0.44 14.33-0.9 0-2.2 0.22-4.04 0.61-5.55 0.44-1.51 1.08-2.66 1.91-3.49-0.61 1.94-0.72 3.78-0.32 5.54 0.47 1.77 1.4 3.39 2.88 4.97 5.97 0.61 11.63 1.01 17.17 1.15 5.58 0.15 10.76 0.08 15.91-0.28-0.65-1.66-0.86-3.21-0.65-4.68 0.26-1.48 1.55-2.13 1.91-4.07 0.4-1.98 0.51-4.47 0.33-7.6 0 0.61 0.1 1.48 0.32 2.63 0.22 1.12 0.76 2.66 0.97 4.07 0.18 1.44-0.32 2.95 0.29 4.39 0.65 1.44 0.79 3.06 3.53 4.1 2.73 1.01 7.99 1.84 12.71 2.02 4.71 0.22 12.16 0.22 15.26-0.86s1.44-5.47 3.2-5.55c1.77-0.03 3.78 4.4 7.31 5.26 3.53 0.83 8.86-0.25 13.68-0.29 4.83-0.03 9.72-0.03 14.94 0 0.94-1.22 1.77-2.59 2.56-4.1 0.79-1.52 1.22-5.01 2.23-4.97 1.01 0.07 3.6 4.07 3.81 5.26 0.22 1.18-3.05 0.79-2.55 1.76 0.54 0.97 1.33 3.6 5.72 4.1 4.47 0.47 11.23 0.11 20.7-1.18 0.79-4.11 1.95-6.12 3.5-6.12 1.54 0 3.16 4.96 5.72 6.12 2.48 1.11-1.08 1.15 39.28 1.36l36.1-0.72 40.9-0.36s-0.69-3.78-0.4-6.26c0.33-2.48-1.47-5.36-0.39-5.9 1.11-0.54 3.92 4.89 6.4 3.67 2.52-1.19 4.83-6.63 4.83-6.63s2.73-2.37 4.03-1.11c1.3 1.29 1.58 3.31 1.98 6.66 0.43 3.31-1.4 4.03-0.4 6.62 1.01 2.56 4.43 3.67 4.43 3.67l40.5 1.48 16.45-0.36c41.04 0.25 48.53-0.65 48.53-0.65s2.31 2.85 5.4 3.21c3.13 0.32 7.38-0.04 13.03-1.15-1.04-83.16-2.08-166.32-3.16-249.52-1.73-0.864-3.17-1.548-4.47-2.052-1.26-0.469-2.3-0.756-3.17-0.865-0.21-1.261-0.42-2.521-0.64-3.78z" />
		</g><path
     id="path30"
     style="fill-rule:evenodd;stroke:#000000;stroke-width:.036;stroke-miterlimit:10;fill:url(#XMLID_4_)"
     d="m680.57 15.662c0.07 32.364 0.29 68.328 0.79 110.13 0.4 41.79 1.05 87.04 1.95 138.27-3.39 1.23-6.45 1.91-9.33 1.77-2.88-0.15-5.47-0.98-7.77-2.49l-10.27-252.5v-0.002c1.34 1.08 3.39 2.088 6.02 3.025 2.55 0.863 6.48 2.159 9.68 2.483 3.06 0.253 6.09 0.072 8.93-0.684z" /><path
     id="path32"
     style="fill-rule:evenodd;stroke:#000000;stroke-width:.036;stroke-miterlimit:10;fill:#412318"
     d="m671.97 9.471l1.19 3.564 5.07 1.907c-3.81 1.009-7.31 1.188-10.76 0.54-3.46-0.72-6.73-2.268-9.83-4.645 2.74-1.295 5.36-1.979 7.74-2.195 2.45-0.288 4.46 0.037 6.59 0.829z" /><path
     id="path43"
     style="fill-rule:evenodd;stroke:#000000;stroke-width:.036;stroke-miterlimit:10;fill:url(#XMLID_5_)"
     d="m523.43 15.123l42.3-0.108 0.97 5.616 0.26 6.516-1.48 7.416 2.09 6.984 4.57 2.375 3.13-2.051 3.78-7.849 2.48-2.196 2.13 1.116 1.44 2.052 1.8 3.637 2.05 3.636 4.64 4.248 1.63 1.512 0.89-7.56 3.24-7.236 3.64-0.756 1.01-1.296 0.32-7.345-0.47-4.355-0.25-4.464 9.61-0.324 14.94-0.252 15.19 0.685 11.42 0.359 11.34 247.32-27.76-0.47h-22.86l-18.47 0.76-28.47-0.76-11.24-2.19-0.39-6.63-0.83-7.38-1.19-2.19-5.22 1.44-4.43 6.66-5.61-4.79-1.98 2.2 0.39 10.69c-41.14 0.97-69.26 1.58-86.14 1.83-16.6 0.18-9.36-0.5-13.43-0.54-4.29-0.1-8.86 0.22-11.63-0.28-2.81-0.69-3.67-2.16-5.08-3.32-1.47-1.22-2.48-3.38-3.6-3.56-1.26-0.22-2.62 0.97-3.56 2.19-0.97 1.16-1.62 2.67-2.09 4.69-4.21 0.35-7.67 0.68-10.76 0.82-3.1 0.07-5.58 0.25-7.45 0-1.91-0.25-3.39-0.9-3.89-1.65-0.61-1.01 0.18-2.52 0.29-3.57-0.04-1.15 0.61-1.69 0-2.73-0.72-1.15-2.99-3.31-3.89-3.56-0.94-0.26-1.01 0.93-1.48 1.9-0.54 0.83-0.86 1.98-1.51 3.32-0.68 1.26-1.62 2.66-2.66 4.35-3.21 0.18-6.92 0.18-11.13 0.29-4.43-0.04-11.02 0.61-14.33 0-3.35-0.83-3.42-2.81-5.07-3.85-1.77-1.08-3.96-2.09-5.08-1.91-1.26 0.11-1.11 2.09-1.8 3.02-0.65 0.79-0.32 1.84-2.09 2.45-1.87 0.65-4.75 1.3-8.64 1.4-3.99-0.07-11.34-0.9-14.65-1.65-3.35-0.87-3.89-1.23-5.07-3.03-1.19-1.9-1.52-5.76-2.09-7.95-0.65-2.31-1.48-3.85-2.09-5.19 0.14 2.6 0 4.83-0.29 6.84-0.39 1.91-1.22 3.28-1.8 4.94-0.68 1.69-1.15 3.2-1.8 4.93-5.87 0.29-11.19 0.43-16.13 0.29-4.96-0.18-9.39-0.51-13.42-1.12-1.19-1.94-2.13-3.67-2.67-5.47-0.65-1.8-0.9-3.49-0.9-5.22-1.69 1.55-2.73 3.06-3.27 4.68-0.58 1.62-0.58 3.17 0 4.93-6.38-0.36-12.46-0.47-18.54-0.29-6.05 0.18-13.11 0.9-17.61 1.37-4.43 0.47-5.69 1.4-8.96 1.37-3.24-0.04-7.06-1.19-10.44-1.62-3.35-0.47-3.85-1.01-9.54-1.12-5.69-0.07 3.96 0.54-24.45 0.54l-20.05-0.36-24.08-0.75-1.59-7.74-3.63-7.35-1.98 7.35-1.62 8.49-20.88 1.08h-3.21c-28.725 0 0.62-0.9-68.577-1.26l-0.9-240.69 23.364 1.042 38.916-0.396h14.037l-0.39 5.184 2.37 5.509-0.39 4.788 5.22-3.313 2.01-5.148 1.19-2.951 5.62-3.672c25.34 0.359 43.74 0.468 56.01 0.324 12.1-0.217 10.55-0.864 16.74-1.369 6.2-0.575 13.5-1.403 20.27-1.655 6.66-0.323 14.26-0.323 19.73-0.288 5.29-0.072 9.61-0.576 12.53 0 2.81 0.504 3.56 1.512 4.79 3.023 1.15 1.332 1.44 3.529 2.37 5.473 0.83 1.908 2.05 4.284 2.7 6.3 0.51 2.017 0.43 4.681 0.9 5.509 0.51 0.647 1.66 0 2.09-1.369 0.18-1.547-0.29-5.039 0-7.127 0.25-2.088 0.9-3.601 1.8-5.221 0.83-1.8 1.04-3.672 3.56-4.645 2.34-0.936 6.12-1.26 11.34-1.115 5.19-0.036 11.67 1.26 20.02 1.115 8.42-0.252 20.59-2.231 29.7-2.483 8.86-0.323 15.88 0.181 23.58 0.54 7.74 0.252 15.3 1.368 22.1 1.116 6.55-0.396 12.89-2.845 17.61-3.024 4.6-0.287 6.51 1.512 10.44 1.908 3.92 0.359 8.06 0.54 12.85 0.54 0.68 3.349 1.33 5.868 1.8 7.956 0.43 1.943 0.86 2.628 0.9 4.141-0.11 1.512-0.47 2.916-1.23 4.644 2.56-1.332 4.11-2.664 4.79-4.392 0.61-1.765-0.61-3.637-0.9-5.761-0.36-2.124-0.75-4.356-1.18-6.84 4.53-0.612 9.06-0.937 14.03-1.116 4.9-0.252 0.26-0.072 15.23 0 15.13 0.07 39.32 0.177 74.13 0.466z" /><path
     id="path54"
     style="fill-rule:evenodd;stroke:#000000;stroke-width:.036;stroke-miterlimit:10;fill:url(#XMLID_6_)"
     d="m33.218 12.207c0.072 69.66 0.18 124.34 0.324 166.96 0.216 42.41 0.36 70.42 0.576 85.83-2.664-1.77-5.256-2.95-8.064-3.57-2.7-0.72-5.436-0.54-8.352-0.28-2.844 0.14-5.832 0.82-8.964 1.65l4.5-249.76v-0.005c3.276-1.693 6.012-2.881 8.352-3.564 2.34-0.756 3.816-1.045 5.688-0.576 1.944 0.503 3.924 1.476 5.94 3.312z" /><path
     id="path56"
     style="fill-rule:evenodd;stroke:#000000;stroke-width:.036;stroke-miterlimit:10;fill:#412318"
     d="m34.73 264.71c-2.736-1.66-5.868-2.7-9.252-3.28-3.384-0.61-8.172-0.75-11.052-0.28-2.736 0.32-4.68 1.19-5.688 2.44 1.512 0.54 3.312 1.01 5.4 1.41 2.196 0.29 4.68 0.68 7.452 0.79l3.564 2.2c2.196 0.32 4.14 0.28 5.688-0.26 1.692-0.54 2.844-1.54 3.888-3.02z" /><path
     id="path58"
     style="stroke:#000000;stroke-width:.036;stroke-miterlimit:10;fill-rule:evenodd"
     d="m672.58 8.643c-2.27-0.359-4.75-0.359-7.64 0-2.91 0.324-6.94 1.188-10.47 2.195v3.744l-19.48-0.144-11.01-0.647-11.02 0.324-10.12 0.215s1.12 9.504 1.01 12.564c-0.32 11.7-3.53-1.764-7.7 10.188-2.16 6.192-1.48 8.785-1.48 8.785s-5.33-2.341-7.09-6.769c-9.07-22.824-10.44 10.8-19.01 1.764-2.23-2.34-1.65-3.888-1.83-8.1s1.22-4.104 1.08-8.748c-0.11-4.644-1.59-9.792-1.59-9.792s-15.62 0.72-33.87 0.576c-18.26-0.18-21.46-0.324-39.5-0.684-18.03-0.361-32.22-0.217-32.22-0.217-36.07-0.072-18.64-0.107-22.1 0-3.53 0.072-8.28 0.54-11.56 0.792-3.24 0.216-5.76 0.72-7.84 0.647-0.29 0.504-0.29 1.656 0 3.529 0.25 1.871 1.72 5.399 1.58 7.596-0.18 2.16-1.01 3.852-2.56 5.256 0.69-1.98 1.01-3.6 0.98-4.969-0.08-1.403-0.83-1.332-1.3-3.203-0.43-1.944-0.83-4.608-1.26-8.209-3.1-0.035-6.56-0.252-10.51-0.575-3.93-0.36-7.31-1.62-13.03-1.476-5.73 0.18-15.31 1.979-20.99 2.34-5.65 0.359-9.83 0.252-12.75-0.289-3.42-0.828-7.59-1.295-12.71-1.439-5.14-0.145-12.6 0.288-17.81 0.576-5.19 0.288-7.17 0.828-13.04 1.152-5.9 0.359-15.8 0.936-21.96 0.899-6.12-0.071-9.93-1.296-14.65-1.188-4.68 0.109-9.07 0.685-13.35 1.765-0.26 0.792-0.69 1.728-1.26 2.916-0.58 1.188-1.91 1.944-2.24 4.104-0.28 2.16 0.54 7.199 0.33 8.748-0.22 1.512-0.72 1.619-1.59 0.287 0.51-2.592 0.44-4.896-0.32-6.984-0.76-2.123-3.17-3.959-4.14-5.58-0.94-1.619 0.29-3.096-1.58-4.067-1.88-1.008-3.96-1.548-9.54-1.764-5.66-0.181-17.46 0.396-23.87 0.575-6.37 0.217-8.61 0.181-14.22 0.576-5.62 0.396 9.54 1.656-19.44 1.765-7.81 0.108-15.63 0.252-23.44 0.396-8.57-0.216-17.13-0.468-25.7-0.72-5.33 0.108-10.66 0.216-16.02 0.36-1.87 1.332-3.75 2.699-5.62 4.068 0 0 0.07-0.613-0.11 0.647-0.21 1.296-0.72 4.5-0.72 4.5-1.33 1.584-2.66 3.168-3.99 4.788 0 0 0.61-1.584 0-3.672-0.61-2.125-1.91-2.053-2.41-4.789-0.51-2.771 0.39-6.264 0.39-6.264-8.42-0.107-16.847-0.252-25.271-0.396-6.264-0.108-12.564-0.216-18.864-0.36-29.34 0.108 41.945 1.152-32.4 0.288 0.108-1.728 0.216-3.491 0.324-5.256-2.988-2.304-6.228-3.384-9.864-3.239-3.636 0.18-7.488 1.512-11.772 4.104-1.473 84.026-2.949 168.05-4.425 252.11 0.144 0.22 1.296 0.51 3.492 0.9 2.196 0.4 5.328 0.86 9.54 1.44 0.612 0.76 1.26 1.55 1.908 2.34 3.096 0.11 5.58-0.07 7.632-0.58 2.052-0.5 3.492-1.26 4.464-2.34-0.18-2.3-0.36-4.64-0.576-6.98 8.136 0.11 16.308 0.22 24.48 0.36 12.564 0.36 25.128 0.72 37.692 1.12 10.44-0.22 20.88-0.47 31.32-0.72v-4.43c0.94-3.57 1.87-7.13 2.81-10.69 0.79 2.08 1.58 4.17 2.37 6.26-0.1 2.7-0.25 5.4-0.39 8.1 34.16-0.18 58.32-0.07 73.83 0.36 15.34 0.43 11.78 2.2 17.93 2.23 6.16 0.04 13.57-1.69 18.76-2.01 5.18-0.36 7.67 0.1 12.09 0 4.43-0.18 9.15-0.44 14.33-0.9 0-2.2 0.22-4.04 0.61-5.55 0.44-1.51 1.08-2.66 1.91-3.49-0.61 1.94-0.72 3.78-0.32 5.54 0.47 1.77 1.4 3.39 2.88 4.97 5.97 0.61 11.63 1.01 17.17 1.15 5.58 0.15 10.76 0.08 15.91-0.28-0.65-1.66-0.86-3.21-0.65-4.68 0.26-1.48 1.55-2.13 1.91-4.07 0.4-1.98 0.51-4.47 0.33-7.6 0 0.61 0.1 1.48 0.32 2.63 0.22 1.12 0.76 2.66 0.97 4.07 0.18 1.44-0.32 2.95 0.29 4.39 0.65 1.44 0.79 3.06 3.53 4.1 2.73 1.01 7.99 1.84 12.71 2.02 4.71 0.22 12.16 0.22 15.26-0.86s1.44-5.47 3.2-5.55c1.77-0.03 3.78 4.4 7.31 5.26 3.53 0.83 8.86-0.25 13.68-0.29 4.83-0.03 9.72-0.03 14.94 0 0.94-1.22 1.77-2.59 2.56-4.1 0.79-1.52 1.22-5.01 2.23-4.97 1.01 0.07 3.6 4.07 3.81 5.26 0.22 1.18-3.05 0.79-2.55 1.76 0.54 0.97 1.33 3.6 5.72 4.1 4.47 0.47 11.23 0.11 20.7-1.18 0.79-4.11 1.95-6.12 3.5-6.12 1.54 0 3.16 4.96 5.72 6.12 2.48 1.11-1.08 1.15 39.28 1.36l36.1-0.72 40.9-0.36s-0.69-3.78-0.4-6.26c0.33-2.48-1.47-5.36-0.39-5.9 1.11-0.54 3.92 4.89 6.4 3.67 2.52-1.19 4.83-6.63 4.83-6.63s2.73-2.37 4.03-1.11c1.3 1.29 1.58 3.31 1.98 6.66 0.43 3.31-1.4 4.03-0.4 6.62 1.01 2.56 4.43 3.67 4.43 3.67l40.5 1.48 16.45-0.36c41.04 0.25 48.53-0.65 48.53-0.65s2.31 2.85 5.4 3.21c3.13 0.32 7.38-0.04 13.03-1.15-1.04-83.16-2.08-166.32-3.16-249.52-1.73-0.864-3.17-1.548-4.47-2.052-1.26-0.469-2.3-0.756-3.17-0.865-0.21-1.261-0.42-2.521-0.64-3.78zm7.02 7.271c-3.24 0.648-6.34 0.828-9.54 0.612-3.24-0.252-7.31-1.224-9.58-2.052-2.23-0.828-3.45-1.801-3.81-2.916 0.18 7.416 0.68 21.096 1.62 41.76 0.9 20.771 2.3 46.368 3.81 81.502 1.48 35.28 3.17 77.19 5.08 127.98 2.05 1.12 4.32 1.69 6.98 1.73 2.7 0.07 5.62-0.4 8.93-1.44-1.15-82.37-2.31-164.77-3.49-247.18v0.004zm-14.37 245.31c-113.9-0.58-73.43 0.75-90.68 0 0 0-9.32 0.21-13.25-1.08-3.89-1.3-1.51-0.65-2.41-4.07s-0.07-6.08-1.19-9.57c-1.11-3.5-3.2-4.43-3.2-4.43s-4.93 1.47-7.24 3.71c-2.3 2.19-2.01 5.14-2.01 5.14s-4.68-5.43-6.81-4.79c-2.09 0.65-1.11 3.96-1.62 7.38-0.47 3.39-0.39 6.27-0.39 6.27-17.25-0.76-46.91 0-46.91 0-12.71 0.22-25.42 0.47-38.12 0.72-40-0.18-22.9 1.08-25.74-0.04-2.89-1.15-5.12-5.68-6.99-6.73-1.87-1.01-3.02-0.57-4.14 0.58-1.11 1.19-1.94 3.31-2.55 6.44-4.54 0.4-8.39 0.58-11.78 0.58-3.35 0-6.69-0.04-8.24-0.58s-1.08-1.91-0.97-2.63c0.1-0.72 1.8-0.75 1.58-1.76s-1.73-3.24-2.84-4.36c-1.15-1.15-2.74-2.73-3.82-2.34-1.08 0.4-1.76 3.03-2.56 4.65-0.82 1.62-1.54 3.27-2.23 4.97-6.08-0.18-11.19-0.29-15.59-0.29-4.39 0-7.81 0.83-10.51 0.29-2.62-0.54-3.78-2.42-5.4-3.5-1.58-1.08-2.98-2.8-4.14-2.91-1.11-0.11-1.9 1.26-2.52 2.34-0.64 1.08 1.12 3.2-1.29 4.07-2.42 0.9-8.9 1.33-13.04 1.18-4.14-0.18-8.82-1.11-11.52-2.05-2.7-0.93-3.56-1.37-4.46-3.49-0.9-2.16-0.22-6.98-0.97-9.36-0.72-2.34-1.87-3.89-3.49-4.68 0.54 3.06 0.64 5.65 0.32 7.88-0.32 2.27-1.62 3.75-2.23 5.55-0.58 1.83-1.01 3.56-1.26 5.29-0.65 0.04-3.28 0.04-7.96 0-4.71-0.07-11.27-0.14-20.05-0.32-1.44-1.52-2.48-3.24-3.17-5.26-0.68-2.02-1.01-4.21-0.97-6.7-1.33 1.08-2.38 2.42-3.17 4.07-0.79 1.69-1.33 3.6-1.58 5.87-12.03-0.07-21.6 0.11-29.27 0.58-7.63 0.43-9.18 1.98-14.8 1.94-5.58-0.07 6.05-1.55-25.27-2.05-7.16-0.29-14.33-0.58-21.49-0.9h-28.48c-4.28-0.11-8.56-0.25-12.85-0.4-0.5-2.55-1.04-5.15-1.58-7.74-1.48-2.3-2.95-4.64-4.43-6.98 0 0-2.09 4.5-3.2 8.1-1.12 3.6-1.19 7.02-1.19 7.02-7.49 0.47-14.98 0.97-22.47 1.48-31.784-0.51 14.66-1.44-68.36-1.34-0.396-79.56-0.828-159.12-1.26-238.71 15.552 0.431 31.14 0.863 46.728 1.295 9.36-0.217 18.72-0.469 28.112-0.721 0 0-1.11 3.385-0.82 5.904 0.32 2.484 1.51 1.26 2.01 4.032 0.51 2.772-0.9 3.96 0 7.021 0.9 3.023 3.6 5.147 3.6 5.147s-1.58-4.608-0.39-7.38c1.22-2.771 3.6-1.116 5.22-3.672 1.62-2.592-0.8-4.141 1.18-6.625 2.02-2.483 6.84-3.311 6.84-3.311h32.51c10.51 0.107 19.87-0.037 28.51-0.505 8.68-0.504 16.82-1.836 22.9-2.34s7.02-0.504 13.28-0.576c6.34-0.108 19.08-0.396 24.2 0 5.07 0.396 4.82 1.476 6.04 2.341 1.23 0.827 0.36 0.936 1.26 2.627 0.94 1.656 3.35 4.824 4.14 7.309 0.8 2.447-0.14 5.832 0.65 7.271 0.83 1.44 3.42 2.16 4.14 1.188 0.69-1.009-0.21-4.572 0-7.021 0.22-2.447 0.47-5.615 1.26-7.596 0.79-1.943 1.95-3.275 3.49-4.104 4.76-0.864 8.82-1.332 12.42-1.44 3.57-0.108 3.5 0.756 8.9 0.864 5.5 0.107 15.69 0.144 23.54-0.288 7.88-0.433 17.42-2.052 23.22-2.341 5.76-0.287 6.52 0.145 11.16 0.576 4.65 0.469 10.98 1.836 16.52 2.053 5.58 0.216 11.2-0.324 16.56-0.864 5.33-0.54 11.45-2.231 15.27-2.34 3.78-0.108 4.17 1.26 7.31 1.764 3.17 0.468 6.91 0.864 11.44 1.152 1.66 3.132 2.6 6.12 2.89 9.071 0.25 2.916-0.15 5.725-1.3 8.461 2.95-2.881 4.93-5.185 6.05-7.021 1.11-1.8 0.9-1.979 0.65-3.78-0.26-1.836-1.02-4.14-2.24-7.02 0.97-0.504 3.5-0.864 7.63-1.152 4.15-0.324-3.52-0.9 34.17-0.9l27.07-0.107 40 0.792 18.68-0.323 16.89-0.252s1.04 5.075 1 10.151c-0.07 5.04-1.69 5.651-1.22 10.116 0.43 4.428 0.25 5.615 3.06 7.632 12.78 9.071 8.28-24.624 19.76-2.124 2.7 5.292 8.68 9.107 8.68 9.107s-0.72-4.428 1.22-11.123c3.35-11.34 7.85-1.008 7.38-12.205-0.14-2.987-1.15-11.195-1.15-11.195s5.69-0.288 18.61-0.792c12.93-0.468 31.97 1.224 31.97 1.224 3.56 81.647 7.17 163.29 10.76 244.98zm6.09-251.14c0.39 1.26 0.83 2.521 1.26 3.816 1.48 0.359 2.95 0.756 4.46 1.152-3.42 0.18-6.55 0-9.54-0.576-2.99-0.611-5.69-1.549-8.28-2.916 2.67-0.936 4.97-1.512 6.99-1.764 2.05-0.251 3.7-0.144 5.11 0.288zm-661.79 253.59c1.764-0.83 3.96-1.3 6.66-1.44 2.736-0.18 6.66 0.07 9.576 0.57 2.88 0.47 5.364 1.26 7.632 2.34-1.296 0.9-2.664 1.52-4.14 1.73-1.512 0.25-3.06 0.15-4.788-0.29-1.044-0.68-2.088-1.36-3.168-2.05-3.924-0.29-7.848-0.58-11.772-0.86zm23.868-0.87c-0.432-24.01-0.756-56.16-0.972-98.17-0.216-42.15-0.324-92.015-0.324-152.21-0.756-1.905-2.628-2.769-5.724-2.625s-7.272 1.295-12.708 3.492c-1.368 82.655-2.736 165.34-4.14 248.04 4.176-0.94 7.812-1.41 11.124-1.44 3.312-0.07 6.444 0.64 8.604 1.15 2.124 0.5 3.492 1.08 4.14 1.76z" /></g>
<metadata
   id="metadata1020"><rdf:RDF><cc:Work><dc:format>image/svg+xml</dc:format><dc:type
         rdf:resource="http://purl.org/dc/dcmitype/StillImage" /><cc:license
         rdf:resource="http://creativecommons.org/licenses/publicdomain/" /><dc:publisher><cc:Agent
           rdf:about="http://openclipart.org/"><dc:title>Openclipart</dc:title></cc:Agent></dc:publisher><dc:title>Parchment Background or Border</dc:title><dc:date>2007-02-09T14:14:32</dc:date><dc:description /><dc:source>https://openclipart.org/detail/3161/parchment-background-or-border-by-gerald_g-3161</dc:source><dc:creator><cc:Agent><dc:title>Gerald_G</dc:title></cc:Agent></dc:creator><dc:subject><rdf:Bag><rdf:li>background</rdf:li><rdf:li>border</rdf:li><rdf:li>paper</rdf:li><rdf:li>parchment</rdf:li><rdf:li>scroll</rdf:li></rdf:Bag></dc:subject></cc:Work><cc:License
       rdf:about="http://creativecommons.org/licenses/publicdomain/"><cc:permits
         rdf:resource="http://creativecommons.org/ns#Reproduction" /><cc:permits
         rdf:resource="http://creativecommons.org/ns#Distribution" /><cc:permits
         rdf:resource="http://creativecommons.org/ns#DerivativeWorks" /></cc:License></rdf:RDF></metadata><text
   xml:space="preserve"
   style="font-style:italic;font-variant:normal;font-weight:500;font-stretch:normal;font-size:192px;line-height:1.25;font-family:'URW Chancery L';-inkscape-font-specification:'URW Chancery L, Medium Italic';font-variant-ligatures:normal;font-variant-caps:normal;font-variant-numeric:normal;font-feature-settings:normal;text-align:start;letter-spacing:0px;word-spacing:0px;writing-mode:lr-tb;text-anchor:start;fill:#000000;fill-opacity:1;stroke:none;stroke-width:0.99999994"
   x="212.48119"
   y="-294.68533"
   id="text523"><tspan
     sodipodi:role="line"
     id="tspan521"
     x="212.48119"
     y="-294.68533"
     style="font-style:italic;font-variant:normal;font-weight:500;font-stretch:normal;font-size:192px;font-family:'URW Chancery L';-inkscape-font-specification:'URW Chancery L, Medium Italic';font-variant-ligatures:normal;font-variant-caps:normal;font-variant-numeric:normal;font-feature-settings:normal;text-align:start;writing-mode:lr-tb;text-anchor:start;stroke-width:0.99999994">Deeds</tspan></text>
<text
   xml:space="preserve"
   style="font-style:italic;font-variant:normal;font-weight:500;font-stretch:normal;font-size:192px;line-height:1.25;font-family:'URW Chancery L';-inkscape-font-specification:'URW Chancery L, Medium Italic';font-variant-ligatures:normal;font-variant-caps:normal;font-variant-numeric:normal;font-feature-settings:normal;text-align:start;letter-spacing:0px;word-spacing:0px;writing-mode:lr-tb;text-anchor:start;fill:#000000;fill-opacity:1;stroke:none;stroke-width:0.99999994"
   x="129.18951"
   y="204.54012"
   id="text523-1"><tspan
     sodipodi:role="line"
     id="tspan521-2"
     x="129.18951"
     y="204.54012"
     style="font-style:italic;font-variant:normal;font-weight:500;font-stretch:normal;font-size:192px;font-family:'URW Chancery L';-inkscape-font-specification:'URW Chancery L, Medium Italic';font-variant-ligatures:normal;font-variant-caps:normal;font-variant-numeric:normal;font-feature-settings:normal;text-align:start;writing-mode:lr-tb;text-anchor:start;stroke-width:0.99999994">Deeds</tspan></text>
</svg>