<?xml version="1.0" encoding="UTF-8" standalone="no"?>
<!-- Created with Inkscape (http://www.inkscape.org/) -->

<svg
   xmlns:dc="http://purl.org/dc/elements/1.1/"
   xmlns:cc="http://creativecommons.org/ns#"
   xmlns:rdf="http://www.w3.org/1999/02/22-rdf-syntax-ns#"
   xmlns:svg="http://www.w3.org/2000/svg"
   xmlns="http://www.w3.org/2000/svg"
   xmlns:sodipodi="http://sodipodi.sourceforge.net/DTD/sodipodi-0.dtd"
   xmlns:inkscape="http://www.inkscape.org/namespaces/inkscape"
   width="600"
   height="106.60863"
   viewBox="0 0 158.75 28.206866"
   version="1.1"
   id="svg8"
   inkscape:version="0.92.3 (unknown)"
   sodipodi:docname="logo-1.svg">
  <defs
     id="defs2" />
  <sodipodi:namedview
     id="base"
     pagecolor="#ffffff"
     bordercolor="#666666"
     borderopacity="1.0"
     inkscape:pageopacity="0.0"
     inkscape:pageshadow="2"
     inkscape:zoom="0.49497475"
     inkscape:cx="321.97314"
     inkscape:cy="505.49644"
     inkscape:document-units="mm"
     inkscape:current-layer="layer1"
     showgrid="true"
     units="px"
     inkscape:window-width="1920"
     inkscape:window-height="1029"
     inkscape:window-x="0"
     inkscape:window-y="0"
     inkscape:window-maximized="1"
     gridtolerance="1"
     objecttolerance="1"
     guidetolerance="1"
     fit-margin-top="0"
     fit-margin-left="0"
     fit-margin-right="0"
     fit-margin-bottom="0">
    <inkscape:grid
       type="xygrid"
       id="grid7364"
       units="px"
       spacingx="0.79375"
       spacingy="0.79375"
       color="#3f3fff"
       opacity="0.0627451"
       visible="true"
       originx="47.545331"
       originy="-11.952688" />
  </sodipodi:namedview>
  <metadata
     id="metadata5">
    <rdf:RDF>
      <cc:Work
         rdf:about="">
        <dc:format>image/svg+xml</dc:format>
        <dc:type
           rdf:resource="http://purl.org/dc/dcmitype/StillImage" />
        <dc:title></dc:title>
      </cc:Work>
    </rdf:RDF>
  </metadata>
  <g
     inkscape:label="Layer 1"
     inkscape:groupmode="layer"
     id="layer1"
     transform="translate(47.545331,-256.84044)">
    <g
       id="g5725"
       transform="matrix(2.4974037,0,0,2.4974037,-47.661866,-405.71238)">
      <g
         id="text3365"
         style="font-style:italic;font-variant:normal;font-weight:500;font-stretch:normal;font-size:2.26265907px;line-height:0%;font-family:'URW Chancery L';-inkscape-font-specification:'URW Chancery L, Medium Italic';text-align:start;letter-spacing:0px;word-spacing:0px;writing-mode:lr-tb;text-anchor:start;fill:#000000;fill-opacity:1;stroke:none;stroke-width:0.18855491px;stroke-linecap:butt;stroke-linejoin:miter;stroke-opacity:1"
         aria-label="of">
        <path
           inkscape:connector-curvature="0"
           id="path5661"
           style="font-size:11.31329346px;line-height:1.25;stroke-width:0.18855491px"
           d="m 33.997118,269.05397 c -0.452531,0 -1.176582,0.32809 -1.844066,0.82587 -0.724051,0.54304 -1.233149,1.71962 -1.233149,2.83964 0,0.69011 0.384652,1.13133 0.984256,1.13133 0.316772,0 0.633545,-0.11313 1.153956,-0.38465 0.565665,-0.31678 0.939003,-0.59961 1.142643,-0.87113 0.452531,-0.61092 0.814557,-1.71962 0.814557,-2.50024 0,-0.61091 -0.418592,-1.04082 -1.018197,-1.04082 z m -0.588291,0.53173 c 0.452532,0 0.735364,0.44121 0.735364,1.12001 0,0.47516 -0.158386,1.06345 -0.441218,1.6178 -0.316772,0.64486 -0.724051,0.99557 -1.153956,0.99557 -0.463845,0 -0.757991,-0.41859 -0.757991,-1.06345 0,-1.31234 0.825871,-2.66993 1.617801,-2.66993 z" />
        <path
           inkscape:connector-curvature="0"
           id="path5663"
           style="font-size:11.31329346px;line-height:1.25;stroke-width:0.18855491px"
           d="m 38.425035,270.17399 c 0.03394,0 0.10182,0 0.226266,0.0113 l 0.463845,-0.36202 c -0.588291,-0.0113 -0.588291,-0.0113 -0.712737,-0.0113 -0.13576,0 -0.13576,0 -0.667485,0.0113 0.735364,-2.87358 0.905064,-3.22429 1.572548,-3.22429 0.192326,0 0.339399,0.0226 0.757991,0.0905 l 0.520411,-0.61091 c -0.226266,-0.0566 -0.316772,-0.0679 -0.543038,-0.0679 -0.678797,0 -1.153956,0.24889 -1.911946,0.98425 -0.633545,0.61092 -0.780618,0.95032 -1.221836,2.82833 -0.113133,-0.0113 -0.169699,-0.0113 -0.226266,-0.0113 l -0.554351,0.0226 c -0.02263,0 -0.07919,0 -0.1697,-0.0113 -0.06788,0.0453 -0.135759,0.0905 -0.158386,0.10182 l -0.248892,0.13575 c -0.04525,0.0226 -0.13576,0.0679 -0.226266,0.12445 h 0.282832 c 0,0 0.791931,0.0113 0.791931,0.0113 0.06788,0 0.192326,0 0.418592,-0.0113 -0.181013,0.69011 -0.248893,0.99557 -0.463845,1.97983 -0.678798,3.11115 -0.939004,3.62025 -1.900634,3.62025 -0.158386,0 -0.294145,-0.0113 -0.599604,-0.0566 -0.113133,0.1697 -0.147073,0.22627 -0.226266,0.32809 -0.09051,0.12445 -0.192326,0.24889 -0.282832,0.38465 0.248892,0.0339 0.373338,0.0453 0.554351,0.0453 0.373339,0 0.667484,-0.0566 0.848497,-0.15839 0.328085,-0.18101 0.905063,-0.73536 1.210522,-1.13133 0.350712,-0.47516 0.757991,-1.4481 1.018197,-2.47761 0.486471,-1.84407 0.610918,-2.30791 0.667484,-2.53418 0.10182,0.0113 0.147073,0.0113 0.192326,0.0113 z" />
      </g>
      <g
         transform="matrix(1.2447158,0,0,1.2447158,0.12823403,-84.900826)"
         id="g7502">
        <g
           id="text3361"
           style="font-style:italic;font-variant:normal;font-weight:500;font-stretch:normal;font-size:1.85434985px;line-height:0%;font-family:'URW Chancery L';-inkscape-font-specification:'URW Chancery L, Medium Italic';text-align:start;letter-spacing:0px;word-spacing:0px;writing-mode:lr-tb;text-anchor:start;fill:#000000;fill-opacity:1;stroke:none;stroke-width:0.15452914px;stroke-linecap:butt;stroke-linejoin:miter;stroke-opacity:1"
           aria-label="abit">
          <path
             inkscape:connector-curvature="0"
             id="path5666"
             style="font-size:9.27174759px;line-height:1.25;stroke-width:0.15452914px"
             d="m 12.649793,286.86267 c -0.695381,0.46358 -0.834458,0.54703 -0.927175,0.54703 -0.0649,0 -0.111261,-0.0742 -0.111261,-0.18544 0,-0.24106 0.222522,-1.26095 0.556305,-2.4941 0.101989,-0.13907 0.120532,-0.16689 0.26888,-0.33378 -0.445043,-0.10199 -0.769555,-0.13908 -1.16824,-0.13908 -0.380141,0 -0.556305,0.0371 -0.79737,0.18544 -0.333783,0.19471 -0.7231964,0.48213 -0.8437291,0.61194 -0.3430547,0.38941 -0.7324681,1.64109 -0.7324681,2.39211 0,0.44504 0.148348,0.74174 0.3801417,0.74174 0.2039784,0 0.5099461,-0.18544 1.6689145,-1.0199 -0.09272,0.4265 -0.139076,0.71393 -0.139076,0.82519 0,0.12053 0.05563,0.19471 0.148348,0.19471 0.111261,0 0.111261,0 0.853001,-0.47286 0.26888,-0.17617 0.48213,-0.32451 0.834457,-0.58412 z m -1.807991,0.0556 c -0.547033,0.39868 -0.825186,0.5563 -0.9920772,0.5563 -0.1483479,0 -0.2410654,-0.16689 -0.2410654,-0.46359 0,-0.46358 0.148348,-1.09406 0.3801417,-1.62255 0.2225219,-0.50995 0.4264999,-0.70465 0.7417399,-0.70465 0.166891,0 0.454315,0.0464 0.788098,0.12053 -0.185435,0.70465 -0.250337,0.9179 -0.259609,0.96426 -0.05563,0.23179 -0.101989,0.46359 -0.157619,0.70465 -0.0093,0.0464 -0.03709,0.15762 -0.08345,0.32451 z" />
          <path
             inkscape:connector-curvature="0"
             id="path5668"
             style="font-size:9.27174759px;line-height:1.25;stroke-width:0.15452914px"
             d="m 12.880862,288.22561 0.296696,-0.25033 c 0.259609,0.0927 0.454316,0.13907 0.630479,0.13907 0.185435,0 0.352326,-0.0556 0.593392,-0.20398 0.194706,-0.1298 0.407957,-0.25033 0.630478,-0.38014 0.324512,-0.17616 0.52849,-0.38014 0.68611,-0.67684 0.296696,-0.52849 0.519218,-1.3444 0.519218,-1.89143 0,-0.4265 -0.213251,-0.70466 -0.547033,-0.70466 -0.305968,0 -0.565577,0.13908 -1.492752,0.79738 0.05563,-0.21325 0.08345,-0.3616 0.101989,-0.42651 0.203979,-1.00134 0.203979,-1.00134 0.231794,-1.08479 0.07417,-0.2967 0.21325,-0.65829 0.31524,-0.83446 0.157619,-0.26888 0.324511,-0.35232 0.676837,-0.35232 h 0.259609 0.139076 l 0.380142,-0.53776 c -0.129805,-0.0186 -0.324511,-0.0278 -0.417229,-0.0278 -0.333783,0 -0.500674,0.10199 -1.279501,0.74174 -0.630479,0.50995 -0.630479,0.50995 -0.95499,1.95634 l -0.52849,2.29012 c -0.166891,0.7232 -0.185434,0.81591 -0.333782,1.40931 z m 1.223871,-2.79079 c 0.528489,-0.38942 0.853001,-0.55631 1.066251,-0.55631 0.185435,0 0.305967,0.17617 0.305967,0.45432 0,0.37087 -0.111261,0.92717 -0.26888,1.32586 -0.250337,0.6212 -0.574849,0.92717 -0.982806,0.92717 -0.185435,0 -0.370869,-0.0556 -0.611935,-0.17616 z" />
          <path
             inkscape:connector-curvature="0"
             id="path5670"
             style="font-size:9.27174759px;line-height:1.25;stroke-width:0.15452914px"
             d="m 18.118675,283.48775 c 0.268881,-0.24107 0.287424,-0.25961 0.602664,-0.50067 -0.05563,-0.11127 -0.101989,-0.18544 -0.120533,-0.21325 -0.05563,-0.11127 -0.0649,-0.12054 -0.139076,-0.2967 -0.01854,-0.0371 -0.03709,-0.0742 -0.05563,-0.12053 -0.04636,0.0371 -0.101989,0.0742 -0.129804,0.10199 -0.03709,0.0371 -0.111261,0.0927 -0.203979,0.16689 -0.04636,0.0371 -0.111261,0.0834 -0.194706,0.13907 -0.03709,0.0278 -0.07417,0.0556 -0.111261,0.0742 0.0649,0.20398 0.148348,0.35232 0.352326,0.64902 z m 0.639751,3.50472 c -0.880816,0.47286 -0.89936,0.48213 -1.019892,0.48213 -0.10199,0 -0.166892,-0.10199 -0.166892,-0.25961 0,-0.0927 0.02782,-0.26888 0.08345,-0.47286 0.472859,-1.94706 0.565576,-2.31793 0.565576,-2.39211 0,-0.0556 -0.04636,-0.0927 -0.111261,-0.0927 -0.157619,0 -0.704652,0.30597 -1.464936,0.81592 l -0.01854,0.25961 c 0.547033,-0.2967 0.593392,-0.31524 0.676837,-0.31524 0.07417,0 0.111261,0.0556 0.111261,0.16689 0,0.12053 -0.02782,0.25034 -0.166891,0.77883 -0.435772,1.62255 -0.435772,1.62255 -0.435772,1.85435 0,0.22252 0.09272,0.37087 0.222522,0.37087 0.157619,0 0.407957,-0.12054 0.899359,-0.43578 0.176163,-0.11126 0.352327,-0.22252 0.52849,-0.34305 0.08345,-0.0464 0.166891,-0.10199 0.259609,-0.15762 z" />
          <path
             inkscape:connector-curvature="0"
             id="path5672"
             style="font-size:9.27174759px;line-height:1.25;stroke-width:0.15452914px"
             d="m 21.467949,286.89975 c -0.704653,0.41723 -1.001349,0.57485 -1.131153,0.57485 -0.120533,0 -0.268881,-0.24106 -0.268881,-0.43577 0,-0.12981 0.15762,-0.84373 0.398685,-1.81726 0.129805,-0.009 0.222522,-0.009 0.268881,-0.009 l 0.37087,-0.009 c 0.03709,0 0.129804,-0.009 0.278152,-0.0278 l 0.352327,-0.26888 h -1.186784 l 0.37087,-1.50203 c -0.176163,0.0927 -0.250337,0.12054 -0.389414,0.18544 -0.0649,0.0371 -0.139076,0.0649 -0.21325,0.10199 -0.03709,0.0185 -0.08345,0.0371 -0.129804,0.0556 l -0.259609,1.15897 c -0.08345,0.009 -0.139076,0.009 -0.166892,0.009 h -0.222522 c -0.01854,0 -0.0649,0 -0.139076,0.009 -0.101989,0.0649 -0.111261,0.0649 -0.268881,0.19471 -0.02782,0.0185 -0.07417,0.0556 -0.139076,0.10199 h 0.222522 0.426501 0.203978 c -0.491403,2.05832 -0.491403,2.05832 -0.491403,2.34575 0,0.29669 0.194707,0.62121 0.37087,0.62121 0.203979,0 0.834458,-0.38942 1.724545,-1.05698 z" />
        </g>
        <g
           id="text3373"
           style="font-style:italic;font-variant:normal;font-weight:500;font-stretch:normal;font-size:1.85434985px;line-height:0%;font-family:'URW Chancery L';-inkscape-font-specification:'URW Chancery L, Medium Italic';text-align:start;letter-spacing:0px;word-spacing:0px;writing-mode:lr-tb;text-anchor:start;fill:#000000;fill-opacity:1;stroke:none;stroke-width:0.15452914px;stroke-linecap:butt;stroke-linejoin:miter;stroke-opacity:1"
           aria-label="H">
          <path
             inkscape:connector-curvature="0"
             id="path5675"
             style="font-size:12.36233139px;line-height:1.25;stroke-width:0.15452914px"
             d="m 4.3725424,285.78227 c 0.074174,-0.25961 0.2719713,-1.00135 0.5933919,-2.21286 0.012362,-0.0494 0.049449,-0.22252 0.098899,-0.4574 l 0.482131,-0.40796 c -0.3214206,-0.0124 -0.5439426,-0.0247 -0.7170153,-0.0247 -1.2115084,0 -2.052147,0.22253 -2.7197129,0.71702 -0.6675659,0.49449 -0.9642618,1.06316 -0.9642618,1.84199 0,0.18543 0.024725,0.32142 0.111261,0.61811 l 0.9271748,-0.30906 c -0.111261,-0.39559 -0.1483479,-0.58103 -0.1483479,-0.853 0,-0.67992 0.2843336,-1.18678 0.7911892,-1.39694 0.2966959,-0.12362 0.5933919,-0.16071 1.3598564,-0.16071 -0.185435,0.61812 -0.1977973,0.6552 -0.7046529,2.67026 l -0.4450439,0.46977 0.3214206,0.0247 c -0.5933919,2.29939 -0.8653632,2.63317 -2.1881326,2.63317 -0.17307268,0 -0.33378299,0 -0.65520361,-0.0247 l -0.58102957,0.80355 c 0.27197129,0.0371 0.3955946,0.0495 0.60575423,0.0495 0.39559461,0 0.70465285,-0.0371 0.95189955,-0.12362 0.3708699,-0.11126 1.0013488,-0.60576 1.64419,-1.27332 0.6552036,-0.67993 0.6922906,-0.75411 1.1002475,-2.03979 1.5329291,-0.0989 1.9779731,-0.12362 2.6702636,-0.13598 -0.061812,0.2596 -0.111261,0.43268 -0.1236233,0.50685 -0.5192179,1.91616 -0.7170152,2.74444 -0.7170152,2.94224 0,0.13598 0.1236233,0.25961 0.2719713,0.25961 0.086536,0 0.2101596,-0.0247 0.3461453,-0.0618 0.3214206,-0.0865 0.3832322,-0.0989 1.866712,-0.37087 l 0.222522,-0.30905 c -0.6675659,0.0618 -0.8653632,0.0742 -1.1620592,0.0742 -0.2596089,0 -0.4079569,-0.12362 -0.4079569,-0.33378 0,-0.38324 0,-0.38324 0.6057542,-2.71972 0.222522,-0.853 0.6675659,-2.44774 0.8653632,-3.06585 0.2719713,-0.86537 0.4821309,-1.08789 1.0013489,-1.08789 0.2472466,0 0.383232,0.0247 0.655203,0.12362 l 0.420319,-0.67992 c -0.234884,-0.0742 -0.333783,-0.0865 -0.556305,-0.0865 -0.519217,0 -1.0631596,0.34614 -1.8667112,1.19914 -0.4944932,0.53159 -0.6675659,0.85301 -0.8777255,1.61947 L 7.11698,285.39904 c 0,0.0124 -0.061812,0.22252 -0.111261,0.38323 z" />
        </g>
      </g>
      <g
         transform="matrix(1.0936852,0,0,1.0936852,-5.8729056,-42.022279)"
         id="g7518">
        <g
           id="text3369"
           style="font-style:italic;font-variant:normal;font-weight:500;font-stretch:normal;font-size:2.11042333px;line-height:0%;font-family:'URW Chancery L';-inkscape-font-specification:'URW Chancery L, Medium Italic';text-align:start;letter-spacing:0px;word-spacing:0px;writing-mode:lr-tb;text-anchor:start;fill:#000000;fill-opacity:1;stroke:none;stroke-width:0.1758686px;stroke-linecap:butt;stroke-linejoin:miter;stroke-opacity:1"
           aria-label="ate">
          <path
             inkscape:connector-curvature="0"
             id="path5678"
             style="font-size:10.55211449px;line-height:1.25;stroke-width:0.1758686px"
             d="m 56.904237,287.4482 c -0.791408,0.52761 -0.94969,0.62258 -1.055211,0.62258 -0.07387,0 -0.126626,-0.0844 -0.126626,-0.21105 0,-0.27435 0.253251,-1.43508 0.633127,-2.83851 0.116074,-0.15829 0.137178,-0.18994 0.306012,-0.37988 -0.506502,-0.11607 -0.875826,-0.15828 -1.329567,-0.15828 -0.432637,0 -0.633127,0.0422 -0.907482,0.21104 -0.379876,0.22159 -0.823065,0.54871 -0.960242,0.69644 -0.390428,0.44319 -0.833617,1.86772 -0.833617,2.72245 0,0.5065 0.168834,0.84416 0.432637,0.84416 0.232146,0 0.580366,-0.21104 1.89938,-1.16073 -0.105521,0.4854 -0.158282,0.81251 -0.158282,0.93914 0,0.13718 0.06331,0.22159 0.168834,0.22159 0.126626,0 0.126626,0 0.970795,-0.53815 0.306011,-0.20049 0.54871,-0.36933 0.94969,-0.66479 z m -2.057662,0.0633 c -0.622575,0.45375 -0.939138,0.63313 -1.129076,0.63313 -0.168834,0 -0.274355,-0.18994 -0.274355,-0.5276 0,-0.52761 0.168834,-1.24515 0.432636,-1.84662 0.253251,-0.58037 0.485398,-0.80196 0.84417,-0.80196 0.189938,0 0.517053,0.0528 0.896929,0.13717 -0.211042,0.80196 -0.284907,1.04466 -0.295459,1.09742 -0.06331,0.26381 -0.116073,0.52761 -0.179386,0.80196 -0.01055,0.0528 -0.04221,0.17939 -0.09497,0.36933 z" />
          <path
             inkscape:connector-curvature="0"
             id="path5680"
             style="font-size:10.55211449px;line-height:1.25;stroke-width:0.1758686px"
             d="m 59.974078,287.49041 c -0.801961,0.47485 -1.139628,0.65423 -1.287358,0.65423 -0.137177,0 -0.306011,-0.27435 -0.306011,-0.49595 0,-0.14773 0.179386,-0.96024 0.453741,-2.06821 0.147729,-0.0106 0.25325,-0.0106 0.306011,-0.0106 l 0.422085,-0.0106 c 0.04221,0 0.147729,-0.0106 0.316563,-0.0317 l 0.40098,-0.30601 h -1.35067 l 0.422084,-1.70945 c -0.20049,0.10552 -0.284907,0.13718 -0.443188,0.21105 -0.07387,0.0422 -0.158282,0.0739 -0.242699,0.11607 -0.04221,0.0211 -0.09497,0.0422 -0.14773,0.0633 l -0.295459,1.31902 c -0.09497,0.0106 -0.158282,0.0106 -0.189938,0.0106 h -0.253251 c -0.0211,0 -0.07386,0 -0.158281,0.0106 -0.116074,0.0739 -0.126626,0.0739 -0.306012,0.22159 -0.03166,0.0211 -0.08442,0.0633 -0.158281,0.11608 h 0.25325 0.485398 0.232146 c -0.559262,2.34257 -0.559262,2.34257 -0.559262,2.66968 0,0.33767 0.221594,0.70699 0.422085,0.70699 0.232146,0 0.94969,-0.44318 1.962693,-1.20294 z" />
          <path
             inkscape:connector-curvature="0"
             id="path5682"
             style="font-size:10.55211449px;line-height:1.25;stroke-width:0.1758686px"
             d="m 63.533438,287.37434 c -0.791408,0.68588 -1.29791,0.98134 -1.69889,0.98134 -0.263803,0 -0.485397,-0.17938 -0.559262,-0.45374 -0.04221,-0.16883 -0.05276,-0.2849 -0.05276,-0.59092 0.474845,-0.29545 0.791409,-0.51705 1.413984,-0.98134 0.569814,-0.43264 0.791408,-0.78086 0.791408,-1.2557 0,-0.36933 -0.232146,-0.59092 -0.60147,-0.59092 -0.232147,0 -0.400981,0.0528 -0.643679,0.18994 -0.400981,0.23214 -0.759752,0.51705 -0.981347,0.7703 -0.40098,0.4854 -0.759752,1.64613 -0.759752,2.50085 0,0.62258 0.327115,1.013 0.865273,1.013 0.622575,0 1.392879,-0.44318 2.226496,-1.2768 z m -2.279256,-0.44319 c 0.179386,-1.12908 0.664783,-2.0049 1.118524,-2.0049 0.179386,0 0.295459,0.17938 0.295459,0.43263 0,0.52761 -0.284907,0.84417 -1.413983,1.57227 z" />
        </g>
        <g
           id="text3377"
           style="font-style:italic;font-variant:normal;font-weight:500;font-stretch:normal;font-size:2.11042333px;line-height:0%;font-family:'URW Chancery L';-inkscape-font-specification:'URW Chancery L, Medium Italic';text-align:start;letter-spacing:0px;word-spacing:0px;writing-mode:lr-tb;text-anchor:start;fill:#000000;fill-opacity:1;stroke:none;stroke-width:0.1758686px;stroke-linecap:butt;stroke-linejoin:miter;stroke-opacity:1"
           aria-label="F">
          <path
             inkscape:connector-curvature="0"
             id="path5685"
             style="font-size:14.06948757px;line-height:1.25;stroke-width:0.1758686px"
             d="m 49.940266,285.59465 0.900447,-3.61586 2.251118,0.0563 c 0.182903,-0.15476 0.590919,-0.46429 0.886378,-0.6472 0.07035,-0.16883 0.08442,-0.19697 0.140695,-0.39394 -0.590919,0.3658 -1.083351,0.49243 -1.871242,0.49243 l -1.885312,-0.0141 c -1.519504,0 -2.405882,0.22511 -3.179704,0.77382 -0.787891,0.57685 -1.266254,1.56172 -1.266254,2.58879 0,0.33767 0.04221,0.57685 0.182904,1.08335 l 1.181837,-0.53464 c -0.225112,-0.66127 -0.28139,-0.9708 -0.28139,-1.39288 0,-1.26625 0.8301,-2.05415 2.138562,-2.05415 0.168834,0 0.408015,0.0141 0.675335,0.0422 l -0.900447,3.61586 -0.506501,0.6472 h 0.351737 l -0.379876,1.50543 c -0.56278,2.25112 -0.900448,2.64507 -2.237049,2.64507 -0.182903,0 -0.422084,-0.0141 -0.942655,-0.0281 l -0.548711,0.91451 c 0.29546,0.0281 0.548711,0.0422 0.703475,0.0422 0.844169,0 1.449157,-0.26732 2.377743,-1.02707 1.027073,-0.8301 1.39288,-1.43509 1.730547,-2.77169 l 0.337668,-1.35067 c 0.801961,-0.0422 1.463227,-0.0844 1.505435,-0.0985 0.393946,-0.0563 0.506502,-0.12662 0.858239,-0.47836 z" />
        </g>
      </g>
    </g>
  </g>
</svg>
